<?xml version="1.0" encoding="utf-8"?>
<!-- Generator: Adobe Illustrator 26.3.1, SVG Export Plug-In . SVG Version: 6.00 Build 0)  -->
<svg version="1.1" id="Capa_1" xmlns="http://www.w3.org/2000/svg" xmlns:xlink="http://www.w3.org/1999/xlink" x="0px" y="0px"
	 viewBox="0 0 64 64" style="enable-background:new 0 0 64 64;" xml:space="preserve">
<style type="text/css">
	.st0{fill:#34363F;}
</style>
<g>
	<g>
		<path class="st0" d="M62,32c0,16.54-13.46,30-30,30C15.46,62,2,48.54,2,32C2,15.46,15.46,2,32,2C48.54,2,62,15.46,62,32z
			 M27.48,32.14v16.84c0,0.24,0.2,0.44,0.44,0.44h6.25c0.24,0,0.44-0.2,0.44-0.44V31.86h4.53c0.23,0,0.42-0.17,0.44-0.4l0.44-5.16
			c0.02-0.26-0.18-0.48-0.44-0.48H34.6v-3.66c0-0.86,0.7-1.55,1.55-1.55h3.49c0.24,0,0.44-0.2,0.44-0.44v-5.16
			c0-0.24-0.2-0.44-0.44-0.44h-5.9c-3.46,0-6.27,2.81-6.27,6.27v4.97h-3.13c-0.24,0-0.44,0.2-0.44,0.44v5.16
			c0,0.24,0.2,0.44,0.44,0.44h3.13V32.14z"/>
	</g>
</g>
</svg>
