<?xml version="1.0" encoding="utf-8"?>
<!-- Generator: Adobe Illustrator 26.3.1, SVG Export Plug-In . SVG Version: 6.00 Build 0)  -->
<svg version="1.1" id="Capa_1" xmlns="http://www.w3.org/2000/svg" xmlns:xlink="http://www.w3.org/1999/xlink" x="0px" y="0px"
	 viewBox="0 0 48 48" style="enable-background:new 0 0 48 48;" xml:space="preserve">
<style type="text/css">
	.st0{fill:#6B6E82;}
</style>
<g>
	<g>
		<path class="st0" d="M46,24c0,12.13-9.87,22-22,22S2,36.13,2,24S11.87,2,24,2S46,11.87,46,24z M20.69,24.1v12.35
			c0,0.18,0.15,0.32,0.32,0.32h4.58c0.18,0,0.32-0.15,0.32-0.32V23.9h3.32c0.17,0,0.31-0.12,0.32-0.29l0.32-3.78
			c0.01-0.19-0.13-0.35-0.32-0.35h-3.65v-2.68c0-0.63,0.51-1.14,1.14-1.14h2.56c0.18,0,0.32-0.15,0.32-0.32v-3.78
			c0-0.18-0.15-0.32-0.32-0.32h-4.33c-2.54,0-4.6,2.06-4.6,4.6v3.64h-2.3c-0.18,0-0.32,0.15-0.32,0.32v3.78
			c0,0.18,0.15,0.32,0.32,0.32h2.3L20.69,24.1C20.68,24.1,20.69,24.1,20.69,24.1z"/>
	</g>
</g>
</svg>
