<?xml version="1.0" encoding="utf-8"?>
<!-- Generator: Adobe Illustrator 26.0.3, SVG Export Plug-In . SVG Version: 6.00 Build 0)  -->
<svg version="1.1" id="Capa_1" xmlns="http://www.w3.org/2000/svg" xmlns:xlink="http://www.w3.org/1999/xlink" x="0px" y="0px"
	 viewBox="0 0 48 48" style="enable-background:new 0 0 48 48;" xml:space="preserve">
<style type="text/css">
	.st0{fill:#FFFFFF;}
</style>
<g>
	<path d="M34.56,39.87c-0.11,0.04-0.24,0.07-0.34,0.14c-0.36,0.28-0.69,0.6-1.06,0.85c-0.44,0.29-0.92,0.53-1.38,0.78
		c-0.09,0.05-0.22,0.03-0.32,0.06c-0.29,0.11-0.57,0.23-0.86,0.34c-0.13,0.05-0.22,0.17-0.4,0.03c-0.08-0.06-0.32,0.07-0.49,0.12
		c-0.07,0.02-0.15,0.05-0.22,0.07c-0.01-0.02-0.03-0.05-0.04-0.07c0.06-0.05,0.11-0.1,0.18-0.14c0.3-0.17,0.6-0.33,0.9-0.51
		c0.42-0.26,0.84-0.52,1.26-0.78c0.02-0.01,0.05-0.02,0.06-0.04c0.42-0.58,1.1-0.83,1.63-1.26c0.23-0.18,0.45-0.36,0.65-0.58
		c-1.69,0.96-3.28,2.09-5.05,2.9c-0.02-0.02-0.03-0.05-0.05-0.07c0.06-0.05,0.11-0.11,0.18-0.15c0.14-0.08,0.27-0.13,0.32-0.32
		c0.02-0.08,0.21-0.12,0.33-0.19c0.12-0.07,0.25-0.15,0.37-0.23c0.11-0.08,0.21-0.17,0.32-0.25c0.63-0.43,1.27-0.86,1.89-1.29
		c0.1-0.07,0.16-0.2,0.24-0.3c-0.03-0.02-0.05-0.05-0.08-0.07c-0.19,0.15-0.39,0.31-0.58,0.46c-0.17,0.13-0.34,0.23-0.56,0.3
		c-0.43,0.13-0.9,0.18-1.26,0.5c-0.25,0.22-0.5,0.44-0.75,0.66c-0.04,0.04-0.09,0.07-0.14,0.1c-0.02-0.02-0.04-0.03-0.06-0.05
		c0.1-0.12,0.19-0.24,0.32-0.4c-0.41,0.19-0.76,0.36-1.12,0.53c-0.02-0.04-0.04-0.08-0.07-0.12c1.47-0.74,2.77-1.7,3.98-2.78
		c-0.02-0.03-0.04-0.06-0.05-0.08c-0.07,0.04-0.14,0.08-0.21,0.12c-0.08,0.04-0.16,0.09-0.28,0.09c0.09-0.09,0.16-0.18,0.26-0.27
		c0.2-0.17,0.4-0.34,0.6-0.5c0.09-0.07,0.21-0.1,0.29-0.18c0.56-0.55,1.14-1.08,1.65-1.67c0.65-0.78,1.29-1.57,1.84-2.43
		c0.5-0.78,0.91-1.63,1.29-2.47c0.22-0.48,0.32-1.02,0.47-1.53c0.07-0.22,0.16-0.43,0.19-0.65c0.16-0.89,0.35-1.77,0.38-2.69
		c0.04-1.05,0.08-2.1-0.05-3.15c-0.07-0.57-0.08-1.14-0.17-1.71c-0.07-0.42-0.21-0.82-0.32-1.23c-0.08-0.32-0.15-0.64-0.25-0.95
		c-0.14-0.43-0.31-0.85-0.46-1.28c-0.08-0.23-0.12-0.47-0.22-0.69c-0.19-0.41-0.4-0.81-0.61-1.21c-0.05-0.09-0.14-0.17-0.15-0.26
		c-0.05-0.53-0.41-0.88-0.73-1.26c-0.23-0.28-0.4-0.6-0.63-0.88c-0.28-0.33-0.58-0.64-0.88-0.94c-0.31-0.31-0.64-0.61-0.98-0.93
		c-0.15,0.15-0.25,0.07-0.38-0.03c-0.26-0.21-0.56-0.37-0.81-0.59c-0.5-0.45-1.11-0.65-1.71-0.87c-0.54-0.2-1.09-0.4-1.66-0.52
		c-0.71-0.16-1.44-0.23-2.16-0.35c-0.87-0.15-1.73-0.04-2.58,0.06c-0.74,0.09-1.47,0.27-2.18,0.48c-0.51,0.15-0.99,0.4-1.47,0.61
		c-0.66,0.29-1.32,0.58-1.97,0.88c-0.19,0.09-0.36,0.22-0.55,0.32c-0.09,0.05-0.2,0.06-0.3,0.08c-0.05,0.01-0.11,0.01-0.14,0.05
		c-0.23,0.33-0.67,0.41-0.92,0.76c-0.06-0.12-0.1-0.19-0.16-0.32c-0.06,0.11-0.14,0.19-0.14,0.27c0,0.25-0.16,0.36-0.35,0.46
		c-0.14,0.08-0.29,0.17-0.36,0.3c-0.17,0.29-0.47,0.44-0.7,0.66c-0.42,0.41-0.85,0.81-1.13,1.34c-0.04,0.07-0.09,0.14-0.15,0.22
		c-0.06-0.09-0.11-0.14-0.19-0.26c-0.12,0.27-0.23,0.51-0.34,0.74c-0.03,0.06-0.04,0.15-0.08,0.18c-0.4,0.2-0.44,0.57-0.52,0.95
		c-0.05,0.24-0.18,0.46-0.27,0.69c-0.03,0.06-0.11,0.12-0.1,0.17c0.06,0.33-0.18,0.57-0.27,0.85c-0.06,0.18-0.22,0.33-0.29,0.51
		c-0.09,0.23-0.14,0.48-0.22,0.72c-0.11,0.34-0.23,0.67-0.35,1.04c-0.19-0.29-0.18-0.31,0.02-0.49c0.07-0.06,0.12-0.15,0.14-0.23
		c0.05-0.27,0.12-0.55,0.11-0.82c-0.01-0.45,0.18-0.82,0.36-1.21c0.02-0.05,0.07-0.1,0.08-0.16c0.07-0.69,0.42-1.29,0.77-1.84
		c0.62-0.97,1.27-1.93,2.12-2.72c0.65-0.6,1.36-1.15,2.06-1.7c0.29-0.23,0.62-0.39,0.93-0.58c0,0.08,0,0.16,0,0.24
		c0.07-0.03,0.14-0.06,0.21-0.09c0.17-0.09,0.34-0.18,0.5-0.28c0.57-0.31,1.13-0.61,1.7-0.93c0.23-0.13,0.41-0.36,0.7-0.36
		c0.39-0.49,1.04-0.51,1.52-0.84c0.13-0.09,0.34-0.06,0.5-0.1c0.42-0.09,0.84-0.18,1.25-0.27c0.07-0.02,0.13-0.06,0.19-0.09
		c0-0.03-0.01-0.05-0.01-0.08c-0.08,0-0.16,0-0.23,0.01c-0.21,0.04-0.4,0.1-0.63,0.04c-0.19-0.05-0.42,0.06-0.63,0.11
		c-0.13,0.03-0.27,0.08-0.4,0.12c-0.13,0.04-0.25,0.08-0.38,0.11c-0.11,0.02-0.22,0.02-0.33,0.05c-0.1,0.03-0.2,0.09-0.3,0.14
		c-0.09,0.04-0.19,0.09-0.28,0.12c-0.09,0.03-0.18,0.05-0.27,0.06c-0.05,0.01-0.11-0.01-0.16-0.01c-0.07,0-0.14,0-0.21,0
		c-0.06,0-0.13,0.01-0.19,0.01c0-0.09-0.04-0.19,0-0.26c0.06-0.12,0.17-0.23,0.25-0.34C20.3,8.3,20.3,8.25,20.31,8.2
		c-0.05-0.01-0.11-0.03-0.16-0.02c-0.33,0.11-0.65,0.23-0.98,0.34c-0.19,0.06-0.39,0.09-0.58,0.14c-0.07,0.02-0.13,0.06-0.19,0.1
		c-0.23,0.17-0.45,0.35-0.67,0.52c-0.05,0.03-0.11,0.04-0.22,0.07c0.04-0.08,0.04-0.12,0.06-0.14c0.41-0.26,0.73-0.64,1.23-0.75
		c0.06-0.01,0.13-0.04,0.15-0.08c0.22-0.44,0.68-0.4,1.05-0.54c0.39-0.15,0.78-0.31,1.17-0.46c0.02-0.01,0.02-0.04,0.05-0.09
		c-0.46-0.14-0.78,0.29-1.21,0.26c0.13-0.09,0.26-0.19,0.39-0.28c-0.01-0.02-0.02-0.04-0.03-0.06c-0.15,0.05-0.29,0.09-0.46,0.15
		c0.02-0.28,0.26-0.3,0.42-0.39c0.17-0.09,0.41-0.06,0.52-0.36C20.6,6.67,20.4,6.72,20.2,6.78c-0.32,0.1-0.64,0.18-0.94,0.32
		c-0.39,0.18-0.76,0.4-1.13,0.61c-0.34,0.18-0.69,0.36-1.03,0.55c-0.91,0.5-1.84,0.97-2.53,1.79c-0.52,0.62-1.09,1.19-1.62,1.79
		c-0.33,0.38-0.63,0.79-0.95,1.17c-0.18,0.22-0.4,0.41-0.59,0.62c-0.07,0.07-0.1,0.17-0.16,0.25c0.03,0.02,0.05,0.04,0.08,0.05
		c0.13-0.15,0.26-0.3,0.39-0.46c-0.33,0.69-0.89,1.24-1.22,1.92c0.02,0.01,0.03,0.03,0.05,0.04c0.04-0.02,0.09-0.03,0.11-0.07
		c0.32-0.42,0.64-0.84,0.94-1.28c0.17-0.26,0.26-0.56,0.43-0.82c0.19-0.29,0.41-0.57,0.64-0.83c0.33-0.37,0.67-0.73,1.01-1.09
		c0.05-0.06,0.1-0.11,0.16-0.16c0.26-0.23,0.52-0.46,0.82-0.73c-0.02,0.13-0.04,0.22-0.06,0.33c0.36,0,0.28-0.4,0.52-0.53
		c-0.06,0.41-0.25,0.71-0.48,0.98c-0.1,0.12-0.22,0.23-0.32,0.36c-0.04,0.05-0.06,0.11-0.08,0.17c0,0.01,0.07,0.07,0.09,0.06
		c0.06-0.03,0.15-0.07,0.17-0.12c0.11-0.36,0.41-0.4,0.79-0.5c-0.06,0.13-0.08,0.23-0.13,0.29c-0.11,0.12-0.22,0.23-0.35,0.33
		c-0.22,0.16-0.28,0.41-0.37,0.64c-0.03,0.08-0.11,0.18-0.18,0.2c-0.41,0.08-0.65,0.33-0.71,0.76c0,0.02-0.01,0.05-0.02,0.07
		c-0.32,0.01-0.32,0.01-0.39,0.46c-0.06-0.03-0.12-0.05-0.16-0.07c-0.52,0.96-1.04,1.9-1.58,2.91c-0.08-0.18-0.14-0.3-0.19-0.42
		c-0.46,0.4-0.38,0.99-0.59,1.48c-0.22-0.09-0.28,0.03-0.28,0.21c-0.01,0.12-0.03,0.21-0.18,0.21c-0.05,0-0.14,0.1-0.14,0.16
		c-0.01,0.08,0.04,0.17,0.08,0.25c0.03,0.08,0.08,0.17,0.12,0.25c-0.03,0.01-0.06,0.03-0.09,0.04c-0.05-0.06-0.09-0.11-0.17-0.21
		C9.9,19,9.89,19.17,9.84,19.33c-0.1,0.38-0.21,0.76-0.3,1.14c-0.02,0.07,0.02,0.15,0.02,0.22c0.01,0.27,0.02,0.55,0,0.82
		c0,0.09-0.07,0.19-0.17,0.27c-0.01-0.15-0.03-0.31-0.04-0.46c-0.03,0-0.05,0-0.08,0C9.23,21.55,9.18,21.77,9.14,22
		c0.11,0.05,0.21,0.09,0.35,0.15c0.06-0.13,0.12-0.26,0.18-0.4c0.02,0,0.05,0.01,0.07,0.01c0.01,0.07,0,0.14,0.03,0.2
		c0.03,0.07,0.07,0.14,0.11,0.21c0.03,0.05,0.08,0.09,0.07,0.14c-0.01,0.18-0.03,0.35-0.05,0.53c-0.03,0.21-0.04,0.39,0.05,0.62
		c0.11,0.26,0.03,0.6,0.05,0.9c0.02,0.29,0.05,0.58,0.08,0.87c0.03,0.32,0.05,0.64,0.12,0.95c0.04,0.2,0.16,0.39,0.21,0.59
		c0.05,0.17,0.05,0.35,0.04,0.52c-0.51-0.81-0.41-1.79-0.85-2.63c0,0.29-0.07,0.59,0.02,0.85c0.14,0.42,0.11,0.85,0.21,1.26
		c0.12,0.48,0.21,0.97,0.4,1.42c0.3,0.69,0.67,1.35,1.04,2.01c0.11,0.2,0.3,0.36,0.45,0.53c0.1,0.11,0.2,0.22,0.32,0.34
		c-0.2,0.17-0.13,0.25,0.05,0.37c0.19,0.13,0.32,0.34,0.47,0.51c-0.03,0.03-0.05,0.05-0.08,0.08c-0.11-0.11-0.23-0.21-0.31-0.29
		c-0.53,0.04-0.75-0.3-1.01-0.65c0,0.05-0.02,0.11,0,0.14c0.38,0.5,0.71,1.04,1.15,1.49c0.46,0.48,1,0.89,1.57,1.25
		c0.16,0.1,0.26,0.29,0.38,0.46c-0.19-0.09-0.37-0.18-0.56-0.26c-0.38-0.15-0.76-0.29-1.14-0.44c-0.1-0.04-0.22-0.07-0.29-0.14
		c-0.33-0.36-0.66-0.71-0.95-1.09c-0.36-0.47-0.68-0.96-1.02-1.44c-0.03-0.04-0.14-0.04-0.21-0.05c-0.01,0.08-0.06,0.18-0.02,0.24
		c0.08,0.15,0.2,0.28,0.33,0.45c-0.1,0.01-0.16,0.01-0.27,0.02c0.31,0.64,0.73,1.16,1.21,1.64c-0.02,0.02-0.04,0.04-0.07,0.07
		c-0.14-0.12-0.3-0.21-0.41-0.35c-0.24-0.29-0.46-0.6-0.68-0.91c-0.16-0.24-0.3-0.5-0.45-0.75c-0.04-0.07-0.07-0.17-0.14-0.21
		c-0.38-0.26-0.49-0.68-0.65-1.07c-0.01-0.02-0.03-0.03-0.1-0.09c0,0.12-0.02,0.19,0,0.26c0.11,0.36,0.22,0.72,0.33,1.08
		c0.02,0.08,0.01,0.17,0.04,0.24c0.06,0.14,0.09,0.34,0.2,0.41c0.17,0.1,0.22,0.23,0.27,0.4c0.08,0.28,0.22,0.53,0.43,0.73
		c0.02-0.01,0.05-0.02,0.07-0.02c-0.01-0.11-0.01-0.23-0.02-0.34c0.02-0.01,0.04-0.03,0.06-0.04c0.48,1.05,0.96,2.09,1.92,2.82
		c0.04-0.03,0.1-0.07,0.17-0.12c0.1,0.19,0.19,0.37,0.29,0.53c0.03,0.05,0.13,0.1,0.17,0.09c0.33-0.12,0.6,0.08,0.85,0.2
		c0.52,0.25,1,0.58,1.5,0.87c0.08,0.04,0.16,0.07,0.25,0.1c0.02-0.02,0.04-0.05,0.06-0.07c-0.25-0.22-0.51-0.44-0.76-0.65
		c0.02-0.02,0.04-0.05,0.06-0.07c0.05,0.03,0.11,0.05,0.16,0.08c0.2,0.12,0.36,0.27,0.63,0.27c0.16,0,0.33,0.18,0.49,0.29
		c0.17,0.12,0.31,0.21,0.55,0.16c0.17-0.04,0.39,0.07,0.58,0.12c0.15,0.04,0.29,0.08,0.44,0.12c-0.04-0.13-0.08-0.27-0.13-0.45
		c0.27,0.15,0.53,0.29,0.79,0.43c0.07,0.04,0.13,0.09,0.19,0.12c0.13,0.07,0.23,0.07,0.22-0.08c0.24,0.04,0.48,0.07,0.72,0.14
		c0.15,0.04,0.3,0.11,0.43,0.2c0.99,0.66,1.73,1.53,2.22,2.62c0.03,0.07,0.12,0.11,0.18,0.17c0.03-0.02,0.05-0.03,0.08-0.05
		c0.05,0.26,0.11,0.53,0.13,0.79c0.06,0.59-0.12,1.13-0.44,1.62c-0.12,0.19-0.3,0.33-0.43,0.51c-0.07,0.09-0.12,0.21-0.15,0.32
		c-0.08,0.39-0.44,0.5-0.69,0.72c-0.06,0.05-0.15,0.06-0.19,0.12c-0.2,0.33-0.54,0.32-0.85,0.4c-0.18,0.05-0.35,0.11-0.52,0.17
		c0-0.03,0-0.05,0-0.08c-0.11-0.02-0.21-0.04-0.32-0.05c-0.07-0.01-0.15-0.01-0.22,0c-0.08,0.01-0.17,0.04-0.24,0.08
		c-0.09,0.05-0.17,0.16-0.27,0.17c-0.96,0.19-1.91,0.26-2.86-0.12c-0.77-0.31-1.38-0.85-2.06-1.3c-0.55-0.36-1.06-0.78-1.62-1.11
		c-0.45-0.27-0.76-0.63-1.05-1.06c-0.15-0.23-0.41-0.39-0.62-0.59c-0.56-0.52-1.13-1.03-1.69-1.56c-0.49-0.46-0.98-0.93-1.43-1.43
		c-0.45-0.5-0.86-1.05-1.28-1.59c-0.8-1.01-1.43-2.12-1.96-3.28c-0.31-0.68-0.61-1.37-0.87-2.07c-0.18-0.47-0.28-0.96-0.43-1.49
		c0.11,0.04,0.17,0.07,0.23,0.1c0.01-0.02,0.02-0.04,0.02-0.04c-0.13-0.27-0.26-0.54-0.39-0.81c-0.02-0.04-0.04-0.09-0.05-0.14
		C1.82,27.5,1.77,26.1,1.81,24.7c0-0.07-0.01-0.13-0.01-0.2c0-0.07,0.01-0.13,0.06-0.22c0.03,0.05,0.09,0.1,0.1,0.16
		c0.05,0.77,0.06,1.55,0.16,2.32c0.09,0.71,0.25,1.41,0.4,2.12c0.1,0.48,0.2,0.95,0.36,1.41c0.1,0.3,0.31,0.56,0.44,0.85
		c0.11,0.25,0.16,0.52,0.24,0.78c0.03,0,0.06-0.01,0.09-0.01c0.01-0.05,0.05-0.1,0.03-0.14c-0.19-0.7-0.38-1.39-0.59-2.08
		c-0.14-0.47-0.31-0.92-0.44-1.39c-0.1-0.36-0.2-0.72-0.23-1.09c-0.06-0.58-0.09-1.17-0.09-1.76c0-1.03,0.02-2.06,0.05-3.1
		c0.01-0.29,0.1-0.58,0.15-0.87c0.03-0.17,0.09-0.34,0.07-0.5c-0.05-0.39,0.22-0.68,0.3-1.03c0.11-0.45,0.21-0.9,0.33-1.34
		c0.03-0.11,0.14-0.2,0.19-0.31c0.1-0.19,0.21-0.38,0.27-0.59c0.06-0.19,0.11-0.38,0.06-0.6c-0.04-0.19,0.1-0.41,0.18-0.62
		c0.28-0.74,0.57-1.47,0.86-2.21c0.08-0.2,0.15-0.41,0.23-0.61c0.03-0.07,0.1-0.12,0.14-0.18c0.03,0.01,0.06,0.03,0.09,0.04
		c-0.06,0.21-0.11,0.43-0.18,0.64c-0.11,0.29-0.24,0.57-0.37,0.86c-0.04,0.08-0.13,0.14-0.15,0.22c-0.02,0.09,0,0.2,0,0.3
		c0.07-0.05,0.17-0.08,0.2-0.15c0.17-0.38,0.3-0.78,0.47-1.16c0.14-0.31,0.31-0.61,0.46-0.91c0.03,0.01,0.06,0.02,0.09,0.02
		c-0.05,0.24-0.08,0.49-0.16,0.73c-0.1,0.3-0.29,0.57-0.37,0.88c-0.06,0.26-0.01,0.54-0.01,0.82c0.04,0.01,0.07,0.01,0.11,0.02
		c0.19-0.39,0.37-0.78,0.58-1.22c0.17,0.39-0.25,0.65-0.12,1.06c0.19-0.44,0.5-0.7,0.8-0.98c0.03,0.02,0.05,0.03,0.08,0.05
		c-0.13,0.36-0.26,0.71-0.39,1.07c-0.24,0.68-0.49,1.36-0.73,2.04c-0.15,0.44-0.32,0.87-0.42,1.32c-0.08,0.37-0.09,0.75-0.12,1.13
		c0.04,0.01,0.08,0.02,0.12,0.02C5.58,19,6,17.73,6.43,16.47c0.04,0.01,0.08,0.02,0.12,0.03c-0.04,0.18-0.08,0.35-0.12,0.53
		c0.02,0.01,0.05,0.02,0.07,0.03c0.16-0.34,0.32-0.69,0.48-1.03c0.11,0.22,0.12,0.42,0.01,0.61c-0.28,0.49-0.36,1.03-0.45,1.57
		c-0.01,0.04,0.01,0.08,0.02,0.16c0.23-0.57,0.44-1.1,0.66-1.65c0.1,0.06,0.15,0.09,0.21,0.12c0.08-0.12,0.16-0.24,0.22-0.36
		c0.33-0.61,0.65-1.23,1-1.83c0.22-0.39,0.47-0.78,0.72-1.16c0.04-0.06,0.17-0.07,0.26-0.11c-0.02,0.08-0.01,0.17-0.06,0.24
		c-0.27,0.44-0.55,0.88-0.82,1.32c-0.19,0.3-0.38,0.61-0.54,0.93c-0.14,0.29-0.22,0.6-0.33,0.9c-0.01,0.04-0.03,0.1-0.01,0.12
		c0.24,0.23,0.01,0.43-0.05,0.64c-0.07,0.29-0.16,0.57-0.2,0.88c0.22-0.14,0.37-0.36,0.38-0.59c0.05-0.63,0.32-1.17,0.64-1.7
		c0.18-0.29,0.27-0.63,0.41-0.95c0.03-0.07,0.04-0.17,0.09-0.2c0.27-0.15,0.3-0.41,0.35-0.67c0.02-0.12,0.11-0.22,0.18-0.32
		c0.03-0.04,0.08-0.07,0.1-0.11c0.16-0.27,0.3-0.56,0.47-0.83c0.06-0.1,0.18-0.16,0.27-0.25c0.39-0.41,0.79-0.81,1.03-1.34
		c0.01-0.03,0.01-0.06-0.05-0.14c-0.35,0.36-0.71,0.72-1.06,1.08c-0.02-0.01-0.04-0.03-0.06-0.04c0.43-0.54,0.86-1.08,1.32-1.67
		c0.03,0.25,0.12,0.25,0.24,0.13c0.37-0.37,0.72-0.75,1.11-1.09c0.41-0.37,0.85-0.72,1.29-1.05c0.15-0.11,0.37-0.11,0.54-0.2
		c0.45-0.22,0.87-0.47,1.33-0.68c0.78-0.35,1.57-0.67,2.36-1c0.61-0.25,1.23-0.5,1.84-0.75c0.1-0.04,0.2-0.08,0.29-0.13
		c0-0.02-0.01-0.04-0.01-0.07c-0.14,0.02-0.28,0.04-0.43,0.06c-0.01-0.02-0.02-0.05-0.03-0.07c0.12-0.05,0.25-0.09,0.36-0.15
		c0.17-0.08,0.43-0.06,0.39-0.36c0-0.02,0.04-0.06,0.06-0.07c0.29-0.06,0.58-0.12,0.87-0.17c0.06-0.01,0.13-0.01,0.19-0.03
		c0.25-0.06,0.49-0.15,0.74-0.18c0.35-0.05,0.71-0.09,1.07-0.09c0.6,0.01,1.19,0.07,1.79,0.07c0.86-0.01,1.66,0.25,2.49,0.42
		c0.4,0.08,0.79,0.21,1.19,0.32c0.38,0.1,0.78,0.18,1.15,0.31c0.43,0.15,0.86,0.33,1.28,0.52c0.48,0.21,0.96,0.41,1.42,0.66
		c0.33,0.18,0.69,0.3,0.98,0.59c0.21,0.22,0.55,0.32,0.81,0.49c0.38,0.25,0.75,0.52,1.13,0.78c0.27,0.19,0.56,0.35,0.8,0.56
		c0.33,0.28,0.63,0.58,0.93,0.89c0.46,0.47,0.9,0.94,1.35,1.41c0.03,0.04,0.05,0.09,0.09,0.12c0.09,0.07,0.18,0.12,0.27,0.18
		c0.01-0.02,0.02-0.04,0.04-0.06c0.27,0.43,0.54,0.85,0.8,1.28c0.02-0.01,0.05-0.03,0.07-0.04c-0.04-0.09-0.07-0.2-0.12-0.28
		c-0.27-0.45-0.54-0.89-0.82-1.33c-0.35-0.55-0.7-1.1-1.08-1.63c-0.17-0.24-0.42-0.43-0.63-0.64c-0.09-0.09-0.25-0.13-0.15-0.32
		c0.02-0.03-0.05-0.14-0.1-0.18c-0.19-0.15-0.39-0.29-0.58-0.44c-0.16-0.12-0.31-0.23-0.41-0.44c-0.1-0.19-0.34-0.32-0.54-0.44
		c-0.65-0.4-1.32-0.78-1.95-1.19c-0.23-0.15-0.39-0.39-0.59-0.6c0.04-0.02,0.08-0.06,0.1-0.05c0.19,0.1,0.42,0.18,0.54,0.33
		c0.12,0.16,0.26,0.19,0.41,0.25c0.05,0.02,0.12,0.01,0.17,0.04c0.37,0.2,0.73,0.4,1.09,0.6c0.23,0.13,0.45,0.37,0.69,0.39
		c0.28,0.02,0.45,0.17,0.66,0.28c0.08,0.04,0.15,0.1,0.2,0.17c0.13,0.16,0.37,0.19,0.58,0.13c0.09-0.03,0.22,0.06,0.37,0.1
		c-0.07-0.46-0.55-0.57-0.74-0.92c0.12,0.08,0.24,0.15,0.4,0.25c-0.01-0.11-0.01-0.18-0.01-0.24c0.02-0.01,0.04-0.02,0.06-0.03
		c0.05,0.07,0.12,0.14,0.13,0.22c0.03,0.25,0.17,0.51,0.42,0.51c0.3,0,0.45,0.19,0.66,0.32c0.05,0.03,0.13,0.01,0.19,0.02
		c0.07,0.02,0.2,0.05,0.2,0.08c0.01,0.39,0.35,0.54,0.56,0.78c0.4,0.47,0.83,0.9,1.21,1.38c0.27,0.35,0.47,0.75,0.72,1.12
		c0.16,0.24,0.36,0.46,0.51,0.71c0.33,0.57,0.65,1.16,0.96,1.74c0.24,0.47,0.48,0.94,0.69,1.42c0.18,0.42,0.32,0.87,0.46,1.31
		c0.13,0.4,0.25,0.8,0.36,1.2c0.13,0.46,0.24,0.92,0.34,1.39c0.11,0.48,0.23,0.97,0.29,1.46c0.11,0.89,0.17,1.79,0.26,2.68
		c0.02,0.21,0.09,0.41,0.11,0.61c0.03,0.31,0.07,0.62,0.05,0.93c-0.03,0.59,0.11,1.16,0.02,1.76c-0.18,1.09-0.32,2.18-0.68,3.23
		c-0.13,0.37-0.16,0.77-0.25,1.16c-0.11,0.46-0.24,0.91-0.36,1.36c-0.02,0.07-0.04,0.14-0.06,0.2c0.02,0.01,0.04,0.02,0.06,0.03
		c0.09-0.19,0.17-0.37,0.26-0.56c0.03,0.01,0.06,0.02,0.08,0.03c-0.05,0.17-0.09,0.35-0.15,0.52c-0.22,0.56-0.43,1.13-0.68,1.68
		c-0.1,0.22-0.28,0.41-0.43,0.6c-0.12,0.15-0.31,0.28-0.11,0.51c0.03,0.03,0.02,0.13-0.01,0.18c-0.3,0.52-0.66,1.01-0.9,1.55
		c-0.16,0.36-0.39,0.64-0.61,0.94c-0.25,0.35-0.48,0.72-0.73,1.08c-0.06,0.08-0.13,0.15-0.2,0.22c-0.38,0.41-0.75,0.81-1.13,1.22
		c-0.02,0.02-0.03,0.06-0.05,0.11c0.08,0.01,0.14,0.02,0.2,0.02c-0.01,0.03,0,0.06-0.02,0.08c-0.39,0.35-0.79,0.7-1.18,1.05
		c-0.06,0.05-0.1,0.13-0.14,0.19c-0.09,0.14-0.13,0.33-0.39,0.23c-0.2-0.07-0.46,0.16-0.49,0.38c-0.01,0.06-0.06,0.12-0.11,0.15
		c-0.28,0.21-0.57,0.42-0.85,0.62c-0.06,0.04-0.14,0.06-0.21,0.06c-0.18,0-0.62,0.27-0.63,0.44c-0.01,0.29-0.23,0.33-0.42,0.38
		c-0.27,0.07-0.49,0.17-0.62,0.45c-0.06,0.12-0.27,0.19-0.42,0.24c-0.26,0.09-0.54,0.12-0.79,0.22c-0.19,0.08-0.47,0.06-0.53,0.36
		c0,0.02-0.09,0.02-0.14,0.03c-0.16,0.05-0.32,0.11-0.47,0.16c-0.02,0.01-0.04,0.03-0.06,0.04c-0.27,0.08-0.54,0.15-0.8,0.24
		c-0.17,0.06-0.32,0.18-0.49,0.22c-0.84,0.21-1.68,0.4-2.52,0.6c-0.11,0.03-0.24,0.02-0.35,0.03c-0.01-0.02-0.02-0.05-0.02-0.07
		c0.05-0.03,0.09-0.08,0.14-0.09c0.88-0.17,1.71-0.47,2.54-0.82c0.04-0.02,0.08-0.04,0.12-0.04c0.69,0,1.23-0.42,1.82-0.68
		c0.46-0.21,0.9-0.46,1.34-0.7c0.29-0.16,0.56-0.33,0.84-0.51c0.06-0.04,0.1-0.11,0.15-0.16c-0.02-0.03-0.04-0.05-0.06-0.08
		c-0.2,0.11-0.41,0.22-0.66,0.35c0.04-0.12,0.06-0.17,0.08-0.24c-0.03,0-0.06-0.02-0.08-0.01c-0.16,0.09-0.33,0.18-0.48,0.28
		c-0.06,0.04-0.08,0.14-0.14,0.19c-0.08,0.08-0.16,0.17-0.26,0.21c-0.17,0.06-0.37,0.06-0.54,0.14c-0.34,0.16-0.66,0.36-1,0.52
		c-0.46,0.21-0.92,0.41-1.38,0.61c-0.08,0.03-0.17,0.03-0.26,0.04c-0.01-0.02-0.02-0.04-0.02-0.06c0.06-0.04,0.12-0.09,0.19-0.13
		c0.61-0.33,1.23-0.66,1.85-0.98c0.03-0.02,0.07-0.02,0.09-0.05c0.38-0.47,1.03-0.48,1.46-0.87c0.31-0.28,0.72-0.45,1.06-0.71
		c0.39-0.3,0.74-0.64,1.11-0.97c0.19-0.17,0.37-0.34,0.56-0.51c-0.02-0.03-0.05-0.06-0.07-0.09c-0.34,0.25-0.68,0.49-1.03,0.74
		c-0.02-0.02-0.04-0.04-0.06-0.07c0.05-0.06,0.1-0.13,0.17-0.18c0.59-0.51,1.21-1,1.77-1.53c0.87-0.82,1.67-1.71,2.38-2.68
		c0.12-0.17,0.21-0.37,0.31-0.56c-0.02-0.02-0.04-0.04-0.06-0.05c-0.06,0.04-0.14,0.08-0.18,0.13c-0.26,0.38-0.5,0.78-0.79,1.14
		c-0.29,0.36-0.55,0.74-0.97,0.99c-0.27,0.16-0.47,0.42-0.7,0.64c-0.04,0.03-0.05,0.12-0.08,0.12c-0.38,0.04-0.53,0.39-0.78,0.6
		c-0.21,0.16-0.4,0.34-0.62,0.5c-0.06,0.04-0.16,0.03-0.25,0.04c0.04-0.07,0.08-0.15,0.13-0.2c0.1-0.1,0.22-0.2,0.33-0.29
		c-0.03-0.03-0.06-0.06-0.09-0.1c-0.34,0.26-0.68,0.51-1.01,0.81c-0.33,0.29-0.71,0.52-1.08,0.76c-0.38,0.25-0.77,0.48-1.16,0.72
		c-0.38,0.23-0.76,0.47-1.15,0.68c-0.4,0.21-0.81,0.39-1.21,0.58c-0.01-0.02-0.03-0.05-0.04-0.07c0.05-0.04,0.1-0.08,0.16-0.11
		c0.68-0.38,1.38-0.75,2.05-1.14c0.36-0.21,0.69-0.47,1.04-0.72c0.05-0.04,0.1-0.09,0.13-0.15c0.02-0.04,0-0.1-0.01-0.16
		c-0.05,0.01-0.1,0.01-0.14,0.03c-0.42,0.24-0.84,0.47-1.26,0.72c-0.26,0.15-0.5,0.35-0.77,0.48c-0.41,0.2-0.85,0.36-1.27,0.55
		c-0.25,0.11-0.5,0.24-0.74,0.36c-0.04,0.02-0.09,0.02-0.13,0.02c-0.01-0.02-0.02-0.04-0.03-0.06c0.52-0.28,1.04-0.55,1.56-0.83
		c0-0.02-0.01-0.05-0.01-0.07c-0.08,0-0.17-0.03-0.23,0c-0.39,0.18-0.77,0.38-1.16,0.55c-0.35,0.15-0.72,0.27-1.08,0.4
		c-0.24,0.09-0.48,0.2-0.73,0.29c-0.08,0.03-0.17,0.03-0.26,0.04c-0.01-0.03-0.01-0.05-0.02-0.08c0.51-0.24,1.01-0.47,1.52-0.71
		c0-0.03-0.01-0.05-0.01-0.08c-0.08-0.01-0.16-0.02-0.31-0.03c0.11-0.06,0.18-0.08,0.23-0.12c0.16-0.11,0.31-0.22,0.47-0.33
		c0.09-0.07,0.17-0.17,0.26-0.23c0.87-0.54,1.75-1.06,2.61-1.62c0.49-0.31,0.95-0.66,1.41-1.02C34.4,40.18,34.46,40.01,34.56,39.87
		c0.26,0.02,0.38-0.06,0.36-0.33C34.77,39.67,34.67,39.77,34.56,39.87z M36,10.37c0.02-0.02,0.03-0.04,0.05-0.06
		c-0.27-0.29-0.54-0.59-0.82-0.86c-0.19-0.17-0.43-0.28-0.61-0.46c-0.68-0.67-1.48-1.15-2.33-1.57c-0.15-0.07-0.33-0.07-0.5-0.08
		c-0.09-0.01-0.19,0.06-0.27,0.03c-0.4-0.15-0.82-0.28-1.18-0.49c-0.9-0.54-1.93-0.66-2.92-0.89c-0.57-0.13-1.17-0.12-1.76-0.14
		c-0.28-0.01-0.57,0.04-0.86,0.07c0,0.02-0.01,0.04-0.01,0.07c0.06,0.02,0.11,0.04,0.17,0.05c0.17,0.02,0.34,0.01,0.5,0.05
		c0.46,0.1,0.95-0.03,1.39,0.2c0.17,0.09,0.33,0.22,0.52,0.27c0.34,0.09,0.68,0.16,1.03,0.2c0.34,0.04,0.68,0.01,1.01,0.15
		c0.39,0.17,0.81,0.26,1.22,0.4c0.43,0.15,0.96,0.09,1.28,0.52c0.02,0.03,0.08,0.03,0.11,0.05c0.11,0.06,0.23,0.11,0.33,0.18
		c0.22,0.15,0.43,0.32,0.66,0.46c0.2,0.12,0.44,0.2,0.64,0.32c0.39,0.23,0.77,0.47,1.16,0.71c0.06,0.03,0.11,0.08,0.16,0.12
		c0.31,0.24,0.62,0.48,0.93,0.72C35.93,10.37,35.97,10.36,36,10.37z M19.21,6.89c-0.01-0.03-0.03-0.05-0.04-0.08
		c-0.81,0.19-1.51,0.58-2.14,1.12c0.41-0.15,0.79-0.34,1.18-0.53c0.19-0.1,0.38-0.21,0.58-0.31C18.92,7.01,19.07,6.95,19.21,6.89z
		 M32.78,38.71c0.31-0.04,1.55-1.31,1.55-1.57C33.61,37.48,33.41,38.31,32.78,38.71z M34.03,11.28c0.46,0.44,0.91,0.88,1.37,1.32
		C35.3,12.18,34.32,11.24,34.03,11.28z M9.43,16.53c0.02,0.01,0.05,0.03,0.07,0.04c0.25-0.12,1.05-1.55,0.96-1.81
		C10.11,15.37,9.77,15.95,9.43,16.53z M6.25,26.91c-0.02,0.37-0.14,0.76,0.19,1.08C6.35,27.63,6.52,27.24,6.25,26.91z M5.71,15.66
		c-0.09,0.26-0.18,0.49-0.26,0.73c0.03,0.01,0.05,0.02,0.08,0.03c0.03-0.05,0.05-0.1,0.09-0.14c0.04-0.05,0.09-0.1,0.14-0.13
		C5.99,16.01,6,15.89,5.71,15.66z M10.16,28.6c-0.04,0.01-0.07,0.03-0.11,0.04c0.13,0.31,0.26,0.61,0.39,0.92
		c0.03-0.01,0.07-0.03,0.1-0.04C10.48,29.18,10.34,28.88,10.16,28.6z M35.85,37.33c-0.24,0.23-0.48,0.46-0.72,0.69
		C35.48,37.91,35.71,37.66,35.85,37.33z M11.88,15.37c0.03,0.01,0.06,0.02,0.09,0.04c0.15-0.29,0.3-0.58,0.44-0.86
		c-0.02-0.01-0.05-0.02-0.07-0.03C12.16,14.78,11.91,15.02,11.88,15.37z M5.96,20.13c0.05,0.01,0.09,0.02,0.14,0.04
		c0.06-0.25,0.13-0.5,0.19-0.75c-0.04-0.01-0.07-0.02-0.11-0.03C6.11,19.63,6.04,19.88,5.96,20.13z M37.21,11.5
		c0.02-0.02,0.04-0.04,0.07-0.07c-0.08-0.26-0.27-0.44-0.55-0.45C36.92,11.18,37.06,11.34,37.21,11.5z M36.23,13.5
		c0.04-0.03,0.09-0.06,0.13-0.09c-0.13-0.17-0.26-0.35-0.4-0.52c-0.03,0.02-0.06,0.04-0.09,0.06C35.99,13.14,36.11,13.32,36.23,13.5
		z M34.33,38.62c0.03,0.04,0.06,0.07,0.09,0.11c0.18-0.17,0.36-0.33,0.54-0.5c-0.02-0.02-0.04-0.05-0.06-0.07
		C34.71,38.32,34.52,38.47,34.33,38.62z M3.47,32.36c-0.03,0.02-0.07,0.03-0.1,0.05c0.08,0.16,0.16,0.33,0.23,0.49
		c0.04-0.02,0.08-0.04,0.12-0.06C3.64,32.68,3.55,32.52,3.47,32.36z M36.08,37.1c0.02,0.02,0.05,0.04,0.07,0.06
		c0.13-0.16,0.27-0.32,0.4-0.48c-0.03-0.02-0.05-0.05-0.08-0.07C36.33,36.77,36.21,36.94,36.08,37.1z M6.36,19
		C6.4,19,6.45,19.01,6.49,19.02c0.02-0.14,0.04-0.27,0.06-0.41c-0.04-0.01-0.08-0.01-0.11-0.02C6.41,18.72,6.39,18.86,6.36,19z"/>
	<path d="M37.45,20.15c0.11,0.49,0.21,0.97,0.33,1.46c0.01,0.06,0.08,0.1,0.13,0.15c0.05,0.05,0.17,0.1,0.17,0.13
		c-0.02,0.11-0.07,0.22-0.12,0.33c-0.03,0.06-0.11,0.11-0.11,0.16c0.06,0.38,0.14,0.75,0.21,1.13c0.01,0.06,0.01,0.12,0.02,0.17
		c0.03,0.3,0.09,0.61,0.1,0.91c0.01,0.22-0.04,0.44-0.06,0.66c-0.01,0.15-0.03,0.31-0.04,0.46c-0.01,0.37-0.01,0.75-0.04,1.12
		c-0.01,0.16-0.07,0.32-0.1,0.48c-0.05,0.26-0.08,0.53-0.14,0.79c-0.11,0.48-0.24,0.96-0.34,1.44c-0.09,0.44-0.18,0.88-0.37,1.29
		c-0.13,0.29-0.27,0.57-0.41,0.86c-0.02,0.04-0.04,0.07-0.06,0.11c-0.15,0.29-0.35,0.58-0.45,0.89c-0.13,0.39-0.4,0.67-0.6,1
		c-0.3,0.51-0.65,1-1,1.48c-0.05,0.07-0.17,0.08-0.25,0.12c-0.06,0.03-0.12,0.05-0.16,0.09c-0.08,0.07-0.15,0.14-0.27,0.18
		c0.01-0.04,0.02-0.09,0.04-0.12c0.57-0.78,1.18-1.53,1.7-2.34c0.4-0.62,0.73-1.3,1.05-1.98c0.25-0.53,0.45-1.08,0.64-1.64
		c0.12-0.37,0.2-0.76,0.27-1.15c0.27-1.53,0.4-3.08,0.28-4.63c-0.06-0.8-0.17-1.61-0.28-2.41c-0.04-0.29-0.12-0.58-0.18-0.86
		c-0.02-0.09-0.02-0.18-0.04-0.26C37.4,20.16,37.43,20.16,37.45,20.15z"/>
	<path d="M15.62,5.32c-0.13,0.08-0.26,0.17-0.39,0.25c-0.37,0.23-0.75,0.44-1.12,0.68c-0.49,0.32-0.97,0.63-1.43,0.98
		c-0.22,0.17-0.34,0.45-0.55,0.65c-0.35,0.34-0.76,0.64-1.1,0.99c-0.37,0.37-0.7,0.79-1.06,1.18c-0.08,0.09-0.18,0.17-0.31,0.21
		c0.08-0.12,0.15-0.23,0.23-0.35C9.87,9.89,9.85,9.87,9.83,9.85c-0.27,0.3-0.53,0.6-0.8,0.9C9,10.73,8.98,10.71,8.96,10.69
		c0.06-0.1,0.1-0.2,0.17-0.29c0.27-0.31,0.5-0.65,0.85-0.91c0.37-0.27,0.65-0.66,0.97-0.99c0.28-0.3,0.55-0.61,0.93-0.8
		c0.04-0.02,0.1-0.05,0.11-0.09c0.17-0.45,0.59-0.6,0.95-0.82c0.51-0.31,1.02-0.63,1.54-0.95c0.15-0.09,0.32-0.16,0.47-0.25
		c0.11-0.06,0.21-0.14,0.31-0.2c0.1-0.06,0.21-0.11,0.31-0.17C15.59,5.25,15.6,5.29,15.62,5.32z"/>
	<path d="M26.86,2.09c-0.1,0.34-0.1,0.34,0.22,0.46c-0.06,0.01-0.13,0.02-0.19,0.02c-0.7,0-1.4,0-2.09,0.01
		c-0.09,0-0.17,0.05-0.26,0.07c-0.14,0.03-0.27,0.05-0.3-0.15c-0.01-0.04-0.05-0.08-0.08-0.09c-0.02-0.01-0.07,0.04-0.09,0.07
		c-0.03,0.04-0.05,0.14-0.08,0.14c-0.29,0.06-0.59,0.1-0.88,0.14c-0.01,0-0.02-0.03-0.04-0.05c0.14-0.09,0.26-0.22,0.42-0.28
		C23.94,2.22,24.39,2,24.91,2c0.04,0,0.09,0.01,0.12-0.01C25.55,1.75,26.25,1.79,26.86,2.09z"/>
	<path d="M8.9,9.48c0.01-0.11,0.01-0.21,0.02-0.32C8.84,9.14,8.77,9.12,8.7,9.1c0.09-0.37,0.28-0.66,0.64-0.88
		c0.03,0.12,0.05,0.21,0.09,0.37C9.6,8.32,9.75,8.1,9.9,7.88c0.02,0.01,0.04,0.03,0.06,0.04C9.69,8.49,9.59,9.17,8.9,9.48z"/>
	<path d="M26.23,3.1c-0.33,0.3-0.33,0.3-1.8,0.36c0.01-0.06,0.03-0.11,0.03-0.16c0-0.05-0.01-0.09-0.03-0.19
		C25.03,3.21,25.6,2.81,26.23,3.1z"/>
	<path d="M20.54,4.6c1.2-0.52,2.43-0.85,3.75-0.78c-0.36,0.04-0.72,0.07-1.07,0.14c-0.54,0.1-1.09,0.17-1.61,0.4
		C21.29,4.51,20.9,4.52,20.54,4.6z"/>
	<path d="M38.36,22.07c0.23,0.17,0.39,2.28,0.2,2.49C38.49,23.71,38.43,22.92,38.36,22.07z"/>
	<path d="M19.25,3.65c0.36-0.35,1.7-0.73,2.03-0.6C20.62,3.24,19.95,3.44,19.25,3.65z"/>
	<path d="M21.49,3.12c0.02-0.25,0.09-0.36,0.31-0.35c0.17,0.01,0.34-0.04,0.51-0.04c0.06,0,0.11,0.05,0.17,0.07
		c-0.03,0.05-0.05,0.15-0.09,0.15C22.11,3.01,21.81,3.06,21.49,3.12z"/>
	<path d="M29.49,39.65c0.55-0.2,0.9-0.73,1.48-0.89c0.02,0.03,0.04,0.06,0.06,0.09c-0.49,0.3-0.98,0.6-1.47,0.9
		C29.53,39.72,29.51,39.69,29.49,39.65z"/>
	<path d="M32.91,36.56c0.34-0.29,0.68-0.59,1.02-0.88c0.03,0.02,0.05,0.04,0.08,0.06c-0.03,0.05-0.05,0.11-0.09,0.15
		c-0.23,0.21-0.47,0.42-0.71,0.62c-0.07,0.06-0.17,0.09-0.25,0.14C32.94,36.62,32.93,36.59,32.91,36.56z"/>
	<path d="M24.38,1.72c0.14-0.23,0.62-0.33,1-0.23C25.28,1.68,24.86,1.78,24.38,1.72z"/>
	<path d="M8.59,11.55c-0.26,0.39-0.52,0.78-0.78,1.17c-0.02-0.02-0.05-0.03-0.07-0.05c0.18-0.44,0.46-0.82,0.79-1.17
		C8.54,11.52,8.56,11.54,8.59,11.55z"/>
	<path d="M11.08,10.23c-0.28,0.33-0.57,0.66-0.85,0.99c-0.03-0.03-0.06-0.05-0.09-0.08c0.28-0.33,0.55-0.67,0.83-1
		C11.01,10.17,11.05,10.2,11.08,10.23z"/>
	<path d="M23.46,3.29c0.29-0.06,0.55-0.11,0.81-0.16c0.01,0.02,0.02,0.05,0.03,0.07c-0.05,0.04-0.1,0.1-0.15,0.11
		c-0.12,0.02-0.18,0.04-0.27,0.17C23.76,3.66,23.59,3.49,23.46,3.29z"/>
	<path d="M37.25,19.71c-0.13-0.41-0.27-0.82-0.4-1.22c0.03-0.01,0.07-0.02,0.1-0.04c0.14,0.41,0.28,0.81,0.43,1.22
		C37.33,19.68,37.29,19.7,37.25,19.71z"/>
	<path d="M18.83,9.6c-0.24,0.15-0.48,0.31-0.73,0.46c-0.02-0.01-0.04-0.02-0.06-0.04c0.03-0.12,0.06-0.23,0.1-0.38
		c0.1,0.07,0.16,0.11,0.19,0.13c0.15-0.1,0.29-0.19,0.43-0.28C18.78,9.53,18.81,9.57,18.83,9.6z"/>
	<path d="M32.25,37.43c0.19-0.32,0.51-0.46,0.83-0.59c0.02,0.03,0.04,0.06,0.06,0.08c-0.28,0.19-0.56,0.38-0.85,0.57
		C32.28,37.46,32.27,37.45,32.25,37.43z"/>
	<path d="M10.32,12.57c-0.18,0.24-0.36,0.48-0.58,0.77C9.71,12.86,10.04,12.73,10.32,12.57z"/>
	<path d="M36.77,6.55c0.22,0.14,0.45,0.28,0.67,0.42c-0.02,0.04-0.04,0.07-0.07,0.11c-0.22-0.14-0.45-0.28-0.67-0.42
		C36.73,6.63,36.75,6.59,36.77,6.55z"/>
	<path d="M26.83,43.55c0.32-0.4,0.44-0.45,0.65-0.25C27.25,43.39,27.04,43.47,26.83,43.55z"/>
	<path d="M12.3,8.98c0.23-0.22,0.47-0.43,0.7-0.65c0.02,0.02,0.04,0.04,0.06,0.06c-0.22,0.23-0.45,0.45-0.67,0.68
		C12.36,9.04,12.33,9.01,12.3,8.98z"/>
	<path d="M13.09,8.21c0.2-0.14,0.38-0.26,0.55-0.38C13.56,8.19,13.34,8.33,13.09,8.21z"/>
	<path d="M22.99,4.4c0.37-0.04,0.73-0.09,1.1-0.13c0,0.03,0.01,0.06,0.01,0.09c-0.37,0.03-0.73,0.07-1.1,0.1
		C22.99,4.44,22.99,4.42,22.99,4.4z"/>
	<path d="M36.16,16.59c0.2,0.19,0.24,0.47,0.33,0.72c-0.02,0.01-0.05,0.02-0.07,0.03c-0.12-0.23-0.23-0.47-0.35-0.7
		C36.11,16.62,36.14,16.6,36.16,16.59z"/>
	<path d="M7.64,15.85c0.11-0.22,0.23-0.44,0.34-0.67c0.04,0.02,0.08,0.04,0.12,0.06c-0.12,0.22-0.23,0.44-0.35,0.66
		C7.72,15.89,7.68,15.87,7.64,15.85z"/>
	<path d="M31.49,38.23c-0.22,0.14-0.45,0.29-0.67,0.43c-0.02-0.02-0.03-0.05-0.05-0.07c0.22-0.16,0.44-0.32,0.65-0.47
		C31.45,38.15,31.47,38.19,31.49,38.23z"/>
	<path d="M11.73,30.13c0.15,0.22,0.27,0.4,0.39,0.58c-0.02,0.01-0.04,0.03-0.06,0.04C11.88,30.65,11.71,30.37,11.73,30.13z"/>
	<path d="M13.02,32.55c0.19,0.2,0.38,0.39,0.57,0.59c-0.01,0.01-0.02,0.02-0.03,0.03c-0.18-0.2-0.37-0.4-0.55-0.6
		C13.01,32.56,13.01,32.56,13.02,32.55z"/>
	<path d="M25.33,1.11C25.55,1.07,25.78,1.04,26,1c0.01,0.03,0.01,0.07,0.02,0.1c-0.23,0.03-0.45,0.07-0.68,0.1
		C25.34,1.17,25.33,1.14,25.33,1.11z"/>
	<path d="M36.53,17.71c0.18,0.16,0.36,0.32,0.22,0.6C36.68,18.11,36.61,17.91,36.53,17.71z"/>
	<path d="M2.26,21.54c0-0.31,0-0.55,0-0.77C2.45,20.93,2.47,21.16,2.26,21.54z"/>
	<path d="M15.72,9.94c-0.05-0.07-0.07-0.09-0.07-0.09c0.07-0.12,0.15-0.23,0.23-0.35c0.03,0.02,0.09,0.06,0.09,0.06
		C15.89,9.69,15.81,9.81,15.72,9.94z"/>
	<path d="M7.29,14.96c-0.09,0.18-0.18,0.36-0.27,0.54C7,15.49,6.98,15.48,6.96,15.47c0-0.22,0.14-0.38,0.26-0.55
		C7.24,14.93,7.27,14.94,7.29,14.96z"/>
	<path d="M45.59,17.98c0.16,0.13,0.2,0.28,0.03,0.52c-0.05-0.2-0.09-0.35-0.12-0.5C45.53,17.99,45.56,17.98,45.59,17.98z"/>
	<path d="M38.48,26.25c0.02-0.17,0.05-0.34,0.07-0.51c0.03,0,0.07,0.01,0.1,0.01c0.09,0.18-0.05,0.34-0.09,0.52
		C38.53,26.26,38.5,26.25,38.48,26.25z"/>
	<path d="M45.8,19.27c-0.03-0.14-0.06-0.29-0.1-0.45C45.93,18.87,45.96,18.97,45.8,19.27z"/>
	<path d="M37.12,7.14c0.2,0.17,0.39,0.34,0.59,0.51c-0.01,0.01-0.02,0.03-0.03,0.04c-0.2-0.16-0.41-0.32-0.61-0.48
		C37.08,7.19,37.1,7.17,37.12,7.14z"/>
	<path d="M7.69,14.2c-0.08,0.16-0.17,0.32-0.25,0.48c-0.03-0.02-0.06-0.03-0.09-0.05c0.09-0.16,0.17-0.32,0.26-0.48
		C7.63,14.17,7.66,14.18,7.69,14.2z"/>
	<path d="M12.45,34.6c0.13,0.09,0.26,0.19,0.39,0.28c-0.02,0.03-0.04,0.06-0.06,0.09c-0.13-0.1-0.26-0.19-0.39-0.29
		C12.41,34.65,12.43,34.62,12.45,34.6z"/>
	<path class="st0" d="M34.03,11.28c0.29-0.05,1.27,0.9,1.37,1.32C34.94,12.16,34.49,11.72,34.03,11.28z"/>
	<path class="st0" d="M37.21,11.5c-0.15-0.16-0.3-0.32-0.48-0.51c0.28,0.01,0.46,0.18,0.55,0.45C37.26,11.46,37.23,11.48,37.21,11.5
		z"/>
</g>
</svg>
