<?xml version="1.0" encoding="utf-8"?>
<!-- Generator: Adobe Illustrator 26.3.1, SVG Export Plug-In . SVG Version: 6.00 Build 0)  -->
<svg version="1.1" id="Capa_1" xmlns="http://www.w3.org/2000/svg" xmlns:xlink="http://www.w3.org/1999/xlink" x="0px" y="0px"
	 viewBox="0 0 48 48" style="enable-background:new 0 0 48 48;" xml:space="preserve">
<style type="text/css">
	.st0{fill:#6B6E82;}
</style>
<g>
	<path class="st0" d="M24.18,19.75c-2.24,0-4.07,1.83-4.07,4.07c0,2.24,1.83,4.07,4.07,4.07s4.07-1.83,4.07-4.07
		S26.42,19.75,24.18,19.75z"/>
	<path class="st0" d="M29.17,13.51H18.83c-2.94,0-5.32,2.38-5.32,5.32v10.34c0,2.94,2.38,5.32,5.32,5.32h10.33
		c2.94,0,5.32-2.38,5.32-5.32V18.83C34.49,15.9,32.1,13.51,29.17,13.51z M24.18,30.17c-3.5,0-6.35-2.85-6.35-6.35
		c0-3.5,2.85-6.35,6.35-6.35c3.5,0,6.35,2.85,6.35,6.35C30.53,27.31,27.68,30.17,24.18,30.17z M30.9,18.55
		c-0.84,0-1.51-0.67-1.51-1.51c0-0.84,0.67-1.51,1.51-1.51c0.84,0,1.51,0.67,1.51,1.51C32.41,17.88,31.74,18.55,30.9,18.55z"/>
	<path class="st0" d="M24,2C11.87,2,2,11.87,2,24s9.87,22,22,22s22-9.87,22-22S36.13,2,24,2z M37.03,29.29
		c0,4.28-3.47,7.74-7.74,7.74H18.71c-4.28,0-7.74-3.47-7.74-7.74V18.71c0-4.28,3.47-7.74,7.74-7.74h10.57
		c4.28,0,7.74,3.47,7.74,7.74L37.03,29.29L37.03,29.29z"/>
</g>
</svg>
