<?xml version="1.0" encoding="utf-8"?>
<!-- Generator: Adobe Illustrator 26.3.1, SVG Export Plug-In . SVG Version: 6.00 Build 0)  -->
<svg version="1.1" id="Capa_1" xmlns="http://www.w3.org/2000/svg" xmlns:xlink="http://www.w3.org/1999/xlink" x="0px" y="0px"
	 viewBox="0 0 64 64" style="enable-background:new 0 0 64 64;" xml:space="preserve">
<style type="text/css">
	.st0{fill:#34363F;}
</style>
<g>
	<path class="st0" d="M32.24,26.2c-3.06,0-5.55,2.49-5.55,5.55c0,3.06,2.49,5.55,5.55,5.55c3.06,0,5.55-2.49,5.55-5.55
		C37.79,28.69,35.3,26.2,32.24,26.2z"/>
	<path class="st0" d="M39.05,17.7H24.95c-4.01,0-7.25,3.25-7.25,7.25v14.1c0,4.01,3.25,7.25,7.25,7.25h14.09
		c4.01,0,7.25-3.25,7.25-7.25v-14.1C46.3,20.95,43.05,17.7,39.05,17.7z M32.24,40.41c-4.77,0-8.66-3.88-8.66-8.66
		c0-4.77,3.88-8.66,8.66-8.66c4.77,0,8.66,3.88,8.66,8.66C40.9,36.52,37.02,40.41,32.24,40.41z M41.41,24.57
		c-1.14,0-2.06-0.92-2.06-2.06c0-1.14,0.92-2.06,2.06-2.06c1.14,0,2.06,0.92,2.06,2.06C43.47,23.65,42.55,24.57,41.41,24.57z"/>
	<path class="st0" d="M32,2C15.46,2,2,15.46,2,32c0,16.54,13.46,30,30,30c16.54,0,30-13.46,30-30C62,15.46,48.54,2,32,2z
		 M49.77,39.21c0,5.83-4.73,10.56-10.56,10.56H24.79c-5.83,0-10.56-4.73-10.56-10.56V24.79c0-5.83,4.73-10.56,10.56-10.56h14.41
		c5.83,0,10.56,4.73,10.56,10.56V39.21z"/>
</g>
</svg>
