<?xml version="1.0" encoding="utf-8"?>
<!-- Generator: Adobe Illustrator 26.0.3, SVG Export Plug-In . SVG Version: 6.00 Build 0)  -->
<svg version="1.1" id="Capa_1" xmlns="http://www.w3.org/2000/svg" xmlns:xlink="http://www.w3.org/1999/xlink" x="0px" y="0px"
	 viewBox="0 0 483.18 89.66" style="enable-background:new 0 0 483.18 89.66;" xml:space="preserve">
<style type="text/css">
	.st0{fill:#FFFFFF;}
	.st1{fill:#1D1D1B;}
</style>
<g>
	<g>
		<path d="M177.72,44.49c-0.13,0.05-0.28,0.08-0.38,0.16c-0.41,0.32-0.79,0.68-1.22,0.97c-0.5,0.33-1.05,0.6-1.58,0.89
			c-0.1,0.06-0.25,0.03-0.37,0.07c-0.33,0.12-0.66,0.26-0.98,0.39c-0.14,0.06-0.25,0.2-0.46,0.03c-0.09-0.07-0.37,0.08-0.56,0.13
			c-0.08,0.02-0.17,0.05-0.25,0.08c-0.01-0.03-0.03-0.05-0.04-0.08c0.07-0.05,0.13-0.12,0.2-0.16c0.34-0.2,0.69-0.38,1.03-0.58
			c0.49-0.29,0.96-0.6,1.45-0.9c0.02-0.02,0.06-0.02,0.07-0.05c0.48-0.66,1.25-0.95,1.87-1.44c0.26-0.21,0.51-0.41,0.74-0.66
			c-1.94,1.09-3.76,2.39-5.78,3.31c-0.02-0.03-0.04-0.05-0.06-0.08c0.07-0.06,0.13-0.13,0.2-0.17c0.16-0.09,0.31-0.15,0.37-0.37
			c0.02-0.1,0.24-0.14,0.37-0.22c0.14-0.08,0.28-0.17,0.42-0.26c0.12-0.09,0.24-0.2,0.36-0.28c0.72-0.49,1.45-0.98,2.17-1.48
			c0.11-0.08,0.18-0.23,0.27-0.34c-0.03-0.03-0.06-0.06-0.09-0.08c-0.22,0.17-0.44,0.35-0.66,0.52c-0.19,0.15-0.38,0.26-0.64,0.34
			c-0.49,0.15-1.03,0.21-1.45,0.57c-0.29,0.25-0.57,0.5-0.86,0.75c-0.05,0.04-0.1,0.08-0.15,0.12c-0.02-0.02-0.04-0.04-0.07-0.06
			c0.11-0.13,0.22-0.27,0.37-0.45c-0.46,0.22-0.87,0.41-1.28,0.6c-0.02-0.04-0.05-0.09-0.07-0.13c1.68-0.84,3.17-1.95,4.56-3.18
			c-0.02-0.03-0.04-0.06-0.06-0.1c-0.08,0.04-0.16,0.09-0.25,0.13c-0.09,0.05-0.18,0.1-0.32,0.1c0.1-0.1,0.19-0.21,0.29-0.3
			c0.22-0.2,0.45-0.39,0.69-0.57c0.1-0.08,0.25-0.12,0.34-0.21c0.64-0.63,1.31-1.23,1.88-1.92c0.75-0.89,1.48-1.8,2.11-2.78
			c0.57-0.89,1.04-1.86,1.48-2.83c0.25-0.55,0.37-1.17,0.54-1.76c0.07-0.25,0.18-0.49,0.22-0.75c0.18-1.02,0.4-2.03,0.44-3.07
			c0.04-1.21,0.09-2.4-0.06-3.61c-0.08-0.65-0.09-1.31-0.2-1.95c-0.07-0.48-0.24-0.94-0.37-1.41c-0.1-0.36-0.17-0.73-0.29-1.08
			c-0.16-0.49-0.35-0.98-0.52-1.47c-0.09-0.26-0.14-0.54-0.26-0.79c-0.21-0.47-0.46-0.93-0.7-1.39c-0.05-0.1-0.16-0.2-0.17-0.3
			c-0.06-0.61-0.47-1.01-0.83-1.44c-0.26-0.32-0.46-0.69-0.72-1c-0.31-0.38-0.66-0.73-1.01-1.07c-0.36-0.36-0.73-0.7-1.12-1.07
			c-0.18,0.17-0.29,0.09-0.43-0.04c-0.29-0.25-0.64-0.43-0.92-0.68c-0.57-0.51-1.27-0.74-1.96-1c-0.62-0.23-1.25-0.46-1.9-0.6
			c-0.82-0.18-1.65-0.26-2.48-0.4c-0.99-0.17-1.98-0.04-2.95,0.07c-0.84,0.1-1.68,0.31-2.5,0.55c-0.58,0.17-1.13,0.46-1.69,0.7
			c-0.76,0.33-1.51,0.66-2.26,1.01c-0.22,0.1-0.41,0.25-0.63,0.36c-0.1,0.05-0.23,0.06-0.34,0.09c-0.05,0.01-0.13,0.02-0.16,0.05
			c-0.27,0.38-0.76,0.46-1.05,0.87c-0.07-0.13-0.11-0.22-0.19-0.37c-0.07,0.13-0.16,0.22-0.16,0.31c0,0.29-0.18,0.41-0.4,0.53
			c-0.16,0.09-0.33,0.2-0.41,0.34c-0.2,0.34-0.54,0.5-0.8,0.75c-0.48,0.47-0.98,0.92-1.29,1.53c-0.04,0.08-0.1,0.15-0.17,0.26
			c-0.07-0.1-0.12-0.17-0.22-0.3c-0.14,0.31-0.27,0.58-0.39,0.85c-0.03,0.07-0.04,0.17-0.09,0.2c-0.46,0.23-0.51,0.66-0.59,1.09
			c-0.05,0.27-0.2,0.53-0.31,0.79c-0.03,0.07-0.13,0.14-0.12,0.19c0.07,0.38-0.2,0.65-0.31,0.97c-0.07,0.21-0.25,0.38-0.34,0.58
			c-0.11,0.26-0.17,0.55-0.25,0.82c-0.13,0.38-0.26,0.77-0.4,1.19c-0.22-0.34-0.21-0.36,0.02-0.56c0.07-0.07,0.14-0.17,0.16-0.27
			c0.06-0.31,0.13-0.63,0.13-0.94c-0.01-0.51,0.21-0.94,0.41-1.38c0.03-0.06,0.08-0.12,0.09-0.18c0.08-0.79,0.48-1.47,0.88-2.11
			c0.71-1.11,1.45-2.21,2.43-3.11c0.75-0.69,1.55-1.32,2.36-1.95c0.33-0.26,0.71-0.45,1.06-0.67c0,0.09,0,0.18,0,0.27
			c0.08-0.04,0.16-0.07,0.24-0.11c0.19-0.1,0.38-0.21,0.58-0.32c0.65-0.35,1.3-0.7,1.94-1.06c0.26-0.15,0.46-0.41,0.8-0.41
			c0.45-0.56,1.19-0.59,1.74-0.96c0.15-0.1,0.38-0.07,0.58-0.11c0.48-0.1,0.96-0.2,1.43-0.31c0.08-0.02,0.15-0.06,0.22-0.1
			c-0.01-0.03-0.01-0.06-0.02-0.09c-0.09,0-0.18,0-0.26,0.01c-0.24,0.05-0.46,0.11-0.72,0.04c-0.22-0.05-0.48,0.07-0.72,0.13
			c-0.15,0.04-0.3,0.1-0.46,0.14c-0.15,0.05-0.29,0.1-0.44,0.13c-0.12,0.03-0.25,0.02-0.37,0.05c-0.12,0.03-0.23,0.1-0.34,0.16
			c-0.11,0.05-0.21,0.1-0.32,0.14c-0.1,0.03-0.2,0.05-0.31,0.07c-0.06,0.01-0.12-0.01-0.18-0.01c-0.08,0-0.16,0-0.24,0
			c-0.07,0-0.15,0.01-0.22,0.01c0-0.1-0.04-0.22,0-0.3c0.07-0.14,0.19-0.26,0.28-0.39c0.03-0.04,0.03-0.1,0.04-0.15
			c-0.06-0.01-0.13-0.04-0.18-0.02c-0.38,0.12-0.75,0.27-1.13,0.39c-0.22,0.07-0.44,0.1-0.66,0.16c-0.08,0.02-0.15,0.07-0.22,0.12
			c-0.26,0.2-0.51,0.4-0.77,0.59c-0.05,0.04-0.13,0.05-0.25,0.09c0.04-0.09,0.04-0.14,0.07-0.16c0.47-0.29,0.84-0.74,1.41-0.86
			c0.06-0.01,0.15-0.05,0.17-0.09c0.26-0.5,0.78-0.46,1.2-0.62c0.45-0.17,0.89-0.35,1.34-0.53c0.02-0.01,0.03-0.05,0.06-0.1
			c-0.53-0.16-0.89,0.33-1.38,0.3c0.15-0.11,0.3-0.21,0.45-0.32c-0.01-0.02-0.03-0.05-0.04-0.07c-0.17,0.05-0.33,0.11-0.52,0.17
			c0.02-0.33,0.29-0.34,0.48-0.45c0.19-0.1,0.47-0.07,0.59-0.41c-0.28,0.07-0.52,0.12-0.74,0.19c-0.36,0.11-0.73,0.21-1.08,0.37
			c-0.45,0.2-0.87,0.46-1.3,0.69c-0.39,0.21-0.79,0.42-1.18,0.63c-1.05,0.57-2.11,1.11-2.9,2.05c-0.59,0.71-1.25,1.36-1.86,2.05
			c-0.38,0.43-0.72,0.9-1.09,1.34c-0.21,0.25-0.45,0.47-0.67,0.71c-0.07,0.08-0.12,0.19-0.18,0.29c0.03,0.02,0.06,0.04,0.09,0.06
			c0.15-0.17,0.3-0.35,0.45-0.52c-0.37,0.79-1.02,1.41-1.4,2.2c0.02,0.02,0.04,0.03,0.06,0.05c0.04-0.02,0.1-0.04,0.13-0.07
			c0.36-0.48,0.74-0.96,1.07-1.46c0.2-0.29,0.3-0.64,0.49-0.94c0.22-0.33,0.47-0.65,0.73-0.95c0.37-0.43,0.77-0.83,1.15-1.24
			c0.06-0.06,0.12-0.13,0.18-0.19c0.3-0.26,0.59-0.53,0.93-0.83c-0.03,0.15-0.05,0.26-0.07,0.38c0.41,0,0.32-0.45,0.6-0.61
			c-0.07,0.47-0.29,0.81-0.55,1.13c-0.12,0.14-0.25,0.27-0.37,0.41c-0.04,0.05-0.07,0.12-0.09,0.19c0,0.01,0.09,0.08,0.11,0.07
			c0.07-0.03,0.17-0.08,0.19-0.14c0.12-0.41,0.47-0.46,0.9-0.57c-0.07,0.15-0.09,0.26-0.15,0.33c-0.12,0.14-0.26,0.26-0.4,0.37
			c-0.25,0.19-0.32,0.47-0.42,0.74c-0.04,0.09-0.13,0.21-0.21,0.22c-0.47,0.1-0.75,0.38-0.81,0.87c0,0.03-0.02,0.05-0.02,0.08
			c-0.36,0.01-0.36,0.01-0.44,0.53c-0.07-0.03-0.13-0.06-0.18-0.08c-0.6,1.1-1.19,2.18-1.81,3.33c-0.1-0.21-0.16-0.34-0.22-0.48
			c-0.52,0.46-0.43,1.14-0.68,1.7c-0.25-0.1-0.31,0.04-0.32,0.24c-0.01,0.14-0.03,0.24-0.21,0.24c-0.06,0-0.16,0.12-0.16,0.19
			c-0.01,0.09,0.05,0.19,0.09,0.29c0.04,0.1,0.09,0.19,0.14,0.29c-0.03,0.02-0.07,0.03-0.1,0.05c-0.05-0.07-0.11-0.13-0.2-0.24
			c-0.04,0.24-0.06,0.44-0.11,0.63c-0.11,0.44-0.24,0.87-0.34,1.3c-0.02,0.08,0.02,0.17,0.02,0.26c0.01,0.31,0.02,0.63,0,0.94
			c-0.01,0.11-0.09,0.21-0.2,0.3c-0.02-0.17-0.03-0.35-0.05-0.52c-0.03,0-0.06,0-0.09,0c-0.05,0.26-0.11,0.51-0.16,0.77
			c0.13,0.06,0.25,0.11,0.4,0.17c0.07-0.15,0.14-0.3,0.2-0.45c0.03,0,0.05,0.01,0.08,0.01c0.01,0.08,0,0.16,0.03,0.23
			c0.03,0.09,0.08,0.16,0.13,0.24c0.03,0.05,0.09,0.11,0.09,0.16c-0.01,0.2-0.03,0.4-0.06,0.6c-0.03,0.24-0.05,0.45,0.06,0.71
			c0.13,0.3,0.03,0.68,0.05,1.03c0.02,0.33,0.05,0.67,0.09,1c0.04,0.36,0.06,0.73,0.13,1.09c0.05,0.23,0.18,0.44,0.25,0.67
			c0.05,0.19,0.06,0.4,0.05,0.6c-0.59-0.92-0.47-2.05-0.97-3.01c0,0.33-0.08,0.68,0.02,0.97c0.16,0.48,0.12,0.97,0.24,1.44
			c0.13,0.55,0.24,1.11,0.46,1.63c0.35,0.79,0.77,1.55,1.19,2.3c0.13,0.23,0.34,0.41,0.52,0.61c0.11,0.13,0.23,0.25,0.36,0.39
			c-0.23,0.2-0.15,0.28,0.06,0.42c0.21,0.15,0.36,0.39,0.54,0.59c-0.03,0.03-0.06,0.06-0.09,0.09c-0.13-0.12-0.26-0.24-0.36-0.33
			c-0.6,0.05-0.86-0.34-1.15-0.74c0,0.05-0.02,0.13,0,0.16c0.43,0.57,0.82,1.19,1.32,1.7c0.53,0.54,1.14,1.02,1.79,1.43
			c0.18,0.11,0.3,0.33,0.43,0.53c-0.21-0.1-0.42-0.21-0.64-0.29c-0.43-0.17-0.87-0.33-1.31-0.5c-0.12-0.04-0.26-0.08-0.33-0.16
			c-0.37-0.41-0.75-0.81-1.09-1.25c-0.41-0.53-0.77-1.1-1.17-1.65c-0.04-0.05-0.15-0.04-0.23-0.06c-0.01,0.09-0.06,0.21-0.03,0.27
			c0.1,0.17,0.23,0.32,0.38,0.51c-0.12,0.01-0.19,0.01-0.31,0.02c0.36,0.73,0.83,1.33,1.39,1.88c-0.02,0.03-0.05,0.05-0.07,0.08
			c-0.16-0.13-0.34-0.24-0.47-0.4c-0.27-0.33-0.53-0.68-0.77-1.04c-0.19-0.28-0.34-0.58-0.51-0.86c-0.05-0.08-0.08-0.19-0.16-0.24
			c-0.43-0.3-0.56-0.78-0.74-1.23c-0.01-0.02-0.04-0.04-0.12-0.11c0,0.14-0.02,0.22,0,0.3c0.12,0.41,0.25,0.83,0.38,1.24
			c0.03,0.09,0.01,0.19,0.05,0.28c0.06,0.16,0.11,0.39,0.23,0.46c0.2,0.12,0.25,0.27,0.31,0.45c0.09,0.32,0.25,0.61,0.49,0.84
			c0.03-0.01,0.06-0.02,0.08-0.03c-0.01-0.13-0.01-0.26-0.02-0.39c0.02-0.01,0.05-0.03,0.07-0.04c0.55,1.2,1.1,2.4,2.19,3.23
			c0.04-0.03,0.12-0.08,0.2-0.14c0.11,0.22,0.21,0.42,0.33,0.61c0.03,0.06,0.15,0.12,0.19,0.1c0.38-0.14,0.68,0.1,0.97,0.23
			c0.6,0.29,1.15,0.66,1.72,1c0.09,0.05,0.19,0.08,0.28,0.12c0.02-0.03,0.04-0.05,0.06-0.08c-0.29-0.25-0.58-0.5-0.88-0.75
			c0.02-0.03,0.04-0.06,0.06-0.08c0.06,0.03,0.13,0.05,0.18,0.09c0.22,0.14,0.41,0.31,0.72,0.31c0.19,0,0.38,0.21,0.56,0.33
			c0.19,0.13,0.35,0.24,0.63,0.18c0.2-0.05,0.44,0.08,0.66,0.13c0.17,0.04,0.34,0.09,0.5,0.14c-0.04-0.15-0.09-0.31-0.15-0.51
			c0.31,0.17,0.61,0.33,0.9,0.49c0.08,0.04,0.14,0.1,0.22,0.14c0.15,0.08,0.27,0.07,0.25-0.09c0.27,0.05,0.55,0.08,0.82,0.16
			c0.17,0.05,0.35,0.13,0.5,0.23c1.13,0.76,1.98,1.75,2.55,3c0.04,0.08,0.14,0.13,0.21,0.19c0.03-0.02,0.06-0.04,0.09-0.06
			c0.05,0.3,0.12,0.6,0.15,0.91c0.07,0.68-0.14,1.29-0.5,1.86c-0.14,0.21-0.34,0.38-0.49,0.58c-0.08,0.1-0.14,0.23-0.17,0.36
			c-0.1,0.44-0.5,0.58-0.79,0.82c-0.06,0.05-0.18,0.07-0.22,0.13c-0.23,0.37-0.62,0.37-0.97,0.46c-0.2,0.05-0.4,0.13-0.6,0.19
			c0-0.03,0-0.06,0-0.09c-0.12-0.02-0.24-0.04-0.36-0.05c-0.08-0.01-0.17-0.01-0.26,0c-0.1,0.02-0.19,0.04-0.28,0.09
			c-0.11,0.06-0.19,0.18-0.3,0.2c-1.1,0.22-2.18,0.3-3.27-0.14c-0.88-0.36-1.58-0.98-2.36-1.49c-0.63-0.41-1.21-0.89-1.86-1.27
			c-0.52-0.31-0.87-0.73-1.2-1.21c-0.18-0.26-0.47-0.45-0.71-0.67c-0.64-0.59-1.3-1.18-1.93-1.78c-0.56-0.53-1.12-1.06-1.63-1.63
			c-0.52-0.58-0.98-1.21-1.46-1.81c-0.92-1.15-1.63-2.42-2.24-3.76c-0.36-0.78-0.7-1.56-1-2.36c-0.2-0.54-0.32-1.1-0.49-1.7
			c0.12,0.05,0.19,0.08,0.26,0.11c0.01-0.02,0.03-0.04,0.02-0.05c-0.15-0.31-0.3-0.62-0.44-0.93c-0.02-0.05-0.05-0.11-0.06-0.16
			c-0.27-1.59-0.32-3.18-0.28-4.79c0-0.08-0.01-0.15-0.01-0.23c0-0.08,0.01-0.15,0.07-0.25c0.04,0.06,0.11,0.12,0.11,0.18
			c0.06,0.88,0.07,1.77,0.18,2.65c0.1,0.81,0.29,1.62,0.46,2.42c0.12,0.54,0.23,1.09,0.41,1.62c0.11,0.34,0.35,0.64,0.5,0.98
			c0.12,0.28,0.19,0.59,0.28,0.89c0.03,0,0.07-0.01,0.1-0.01c0.01-0.05,0.05-0.11,0.04-0.16c-0.22-0.8-0.44-1.59-0.67-2.38
			c-0.16-0.53-0.35-1.06-0.5-1.59c-0.11-0.41-0.22-0.83-0.27-1.25c-0.07-0.67-0.1-1.34-0.1-2.02c0-1.18,0.02-2.36,0.06-3.54
			c0.01-0.33,0.11-0.66,0.17-0.99c0.03-0.19,0.1-0.38,0.08-0.57c-0.06-0.45,0.25-0.78,0.34-1.18c0.12-0.51,0.24-1.03,0.37-1.53
			c0.04-0.13,0.16-0.23,0.22-0.36c0.11-0.22,0.24-0.44,0.31-0.67c0.07-0.22,0.13-0.43,0.07-0.69c-0.04-0.21,0.12-0.47,0.2-0.71
			c0.32-0.85,0.65-1.69,0.98-2.53c0.09-0.23,0.17-0.47,0.27-0.7c0.03-0.08,0.11-0.14,0.17-0.2c0.03,0.01,0.07,0.03,0.1,0.04
			c-0.07,0.24-0.12,0.49-0.21,0.73c-0.13,0.33-0.27,0.66-0.42,0.98c-0.04,0.09-0.15,0.16-0.17,0.25c-0.03,0.11,0,0.23,0.01,0.34
			c0.08-0.06,0.2-0.09,0.23-0.17c0.19-0.44,0.35-0.89,0.54-1.33c0.16-0.36,0.35-0.7,0.53-1.05c0.04,0.01,0.07,0.02,0.11,0.03
			c-0.06,0.28-0.09,0.57-0.18,0.83c-0.12,0.34-0.34,0.66-0.42,1.01c-0.07,0.29-0.01,0.62-0.01,0.93c0.04,0.01,0.08,0.01,0.12,0.02
			c0.21-0.45,0.43-0.89,0.67-1.39c0.19,0.45-0.29,0.75-0.13,1.21c0.22-0.5,0.57-0.81,0.91-1.12c0.03,0.02,0.06,0.04,0.09,0.06
			c-0.15,0.41-0.3,0.81-0.45,1.22c-0.28,0.78-0.56,1.56-0.83,2.34c-0.17,0.5-0.36,1-0.48,1.51c-0.1,0.42-0.1,0.86-0.14,1.29
			c0.04,0.01,0.09,0.02,0.13,0.03c0.48-1.45,0.96-2.9,1.45-4.35c0.05,0.01,0.09,0.03,0.14,0.04c-0.05,0.2-0.09,0.4-0.14,0.6
			c0.03,0.01,0.05,0.02,0.08,0.03c0.18-0.39,0.36-0.79,0.54-1.18c0.13,0.25,0.14,0.48,0.01,0.69c-0.32,0.56-0.41,1.18-0.51,1.8
			c-0.01,0.04,0.01,0.09,0.03,0.18c0.26-0.65,0.5-1.26,0.75-1.89c0.11,0.07,0.17,0.1,0.24,0.14c0.09-0.14,0.18-0.27,0.25-0.41
			c0.38-0.7,0.75-1.4,1.14-2.09c0.26-0.45,0.54-0.89,0.82-1.32c0.05-0.07,0.19-0.09,0.29-0.13c-0.02,0.09-0.02,0.2-0.06,0.27
			c-0.31,0.51-0.63,1.01-0.94,1.51c-0.21,0.35-0.44,0.69-0.61,1.06c-0.16,0.33-0.25,0.68-0.38,1.03c-0.02,0.04-0.03,0.12-0.01,0.14
			c0.27,0.27,0.01,0.49-0.05,0.73c-0.08,0.33-0.19,0.66-0.23,1.01c0.25-0.16,0.42-0.41,0.44-0.68c0.06-0.73,0.36-1.34,0.73-1.95
			c0.2-0.33,0.31-0.72,0.46-1.08c0.03-0.08,0.04-0.2,0.1-0.23c0.3-0.17,0.34-0.46,0.4-0.76c0.03-0.13,0.13-0.25,0.21-0.37
			c0.03-0.05,0.09-0.08,0.12-0.13c0.18-0.31,0.35-0.64,0.54-0.94c0.07-0.12,0.21-0.19,0.31-0.29c0.45-0.47,0.91-0.93,1.18-1.54
			c0.01-0.03,0.01-0.07-0.05-0.16c-0.41,0.41-0.81,0.82-1.22,1.23c-0.02-0.02-0.04-0.03-0.06-0.05c0.49-0.62,0.98-1.24,1.51-1.91
			c0.03,0.29,0.13,0.28,0.27,0.14c0.42-0.42,0.83-0.86,1.27-1.25c0.47-0.42,0.97-0.82,1.48-1.2c0.17-0.13,0.42-0.13,0.62-0.23
			c0.51-0.25,1-0.54,1.52-0.77c0.89-0.4,1.8-0.77,2.7-1.15c0.7-0.29,1.41-0.57,2.11-0.86c0.11-0.05,0.22-0.1,0.34-0.14
			c-0.01-0.02-0.01-0.05-0.02-0.07c-0.16,0.02-0.33,0.05-0.49,0.07c-0.01-0.03-0.02-0.06-0.03-0.08c0.14-0.06,0.28-0.11,0.42-0.17
			c0.19-0.09,0.49-0.07,0.45-0.41c0-0.02,0.04-0.07,0.07-0.08c0.33-0.07,0.67-0.13,1-0.2c0.07-0.01,0.14-0.01,0.21-0.03
			c0.28-0.07,0.56-0.17,0.85-0.21c0.41-0.06,0.82-0.1,1.23-0.1c0.68,0.01,1.36,0.08,2.05,0.08c0.98-0.01,1.9,0.28,2.84,0.48
			c0.46,0.09,0.91,0.24,1.36,0.37c0.44,0.12,0.89,0.21,1.32,0.35c0.5,0.17,0.98,0.38,1.46,0.59c0.55,0.24,1.1,0.47,1.62,0.76
			c0.38,0.21,0.8,0.35,1.12,0.68c0.25,0.25,0.63,0.36,0.93,0.56c0.44,0.29,0.86,0.6,1.29,0.9c0.31,0.21,0.64,0.4,0.92,0.64
			c0.37,0.32,0.72,0.66,1.06,1.01c0.52,0.53,1.03,1.08,1.54,1.62c0.04,0.04,0.06,0.1,0.1,0.14c0.1,0.07,0.21,0.14,0.31,0.2
			c0.01-0.02,0.03-0.04,0.04-0.06c0.31,0.49,0.61,0.97,0.92,1.46c0.03-0.02,0.06-0.03,0.08-0.05c-0.05-0.11-0.08-0.22-0.14-0.32
			c-0.31-0.51-0.62-1.02-0.94-1.53c-0.4-0.63-0.8-1.26-1.24-1.86c-0.2-0.28-0.48-0.49-0.72-0.73c-0.1-0.1-0.28-0.15-0.17-0.37
			c0.02-0.04-0.06-0.16-0.12-0.21c-0.22-0.17-0.45-0.33-0.67-0.5c-0.18-0.14-0.35-0.27-0.47-0.5c-0.11-0.22-0.39-0.36-0.61-0.5
			c-0.74-0.46-1.51-0.89-2.24-1.36c-0.26-0.17-0.45-0.44-0.68-0.68c0.04-0.02,0.1-0.07,0.12-0.06c0.22,0.12,0.49,0.2,0.62,0.38
			c0.13,0.18,0.3,0.22,0.47,0.29c0.06,0.03,0.14,0.01,0.2,0.04c0.42,0.23,0.83,0.45,1.25,0.69c0.26,0.15,0.52,0.42,0.79,0.44
			c0.32,0.02,0.51,0.2,0.75,0.32c0.09,0.05,0.17,0.12,0.23,0.19c0.15,0.18,0.43,0.22,0.66,0.15c0.11-0.03,0.26,0.07,0.42,0.12
			c-0.09-0.52-0.63-0.65-0.85-1.06c0.14,0.09,0.28,0.17,0.46,0.29c-0.01-0.13-0.01-0.2-0.01-0.28c0.02-0.01,0.05-0.02,0.07-0.04
			c0.05,0.08,0.14,0.16,0.15,0.25c0.03,0.29,0.2,0.59,0.48,0.58c0.34,0,0.52,0.21,0.75,0.37c0.05,0.04,0.15,0.01,0.22,0.03
			c0.08,0.02,0.23,0.06,0.23,0.09c0.01,0.45,0.4,0.61,0.64,0.89c0.45,0.53,0.95,1.03,1.38,1.58c0.31,0.4,0.54,0.86,0.82,1.28
			c0.18,0.28,0.42,0.53,0.58,0.82c0.38,0.66,0.75,1.32,1.1,2c0.28,0.53,0.55,1.07,0.79,1.63c0.21,0.49,0.37,0.99,0.53,1.49
			c0.15,0.46,0.29,0.92,0.42,1.38c0.14,0.53,0.27,1.06,0.39,1.59c0.12,0.55,0.26,1.11,0.33,1.67c0.12,1.02,0.2,2.05,0.3,3.07
			c0.02,0.23,0.1,0.46,0.12,0.7c0.04,0.35,0.08,0.71,0.06,1.06c-0.03,0.67,0.13,1.33,0.02,2.01c-0.2,1.25-0.36,2.5-0.78,3.7
			c-0.15,0.42-0.18,0.89-0.29,1.32c-0.13,0.52-0.27,1.04-0.41,1.56c-0.02,0.08-0.04,0.16-0.07,0.23c0.02,0.01,0.05,0.02,0.07,0.03
			c0.1-0.21,0.2-0.43,0.29-0.64c0.03,0.01,0.06,0.02,0.1,0.03c-0.06,0.2-0.1,0.4-0.18,0.59c-0.25,0.64-0.49,1.29-0.78,1.92
			c-0.11,0.25-0.32,0.47-0.49,0.69c-0.14,0.18-0.36,0.32-0.13,0.58c0.03,0.04,0.02,0.15-0.01,0.21c-0.35,0.59-0.76,1.15-1.03,1.78
			c-0.18,0.41-0.45,0.73-0.7,1.08c-0.29,0.4-0.55,0.83-0.84,1.24c-0.06,0.09-0.15,0.17-0.23,0.25c-0.43,0.47-0.86,0.93-1.29,1.4
			c-0.02,0.03-0.03,0.07-0.06,0.12c0.09,0.01,0.16,0.02,0.23,0.03c-0.01,0.04-0.01,0.07-0.02,0.09c-0.45,0.4-0.9,0.8-1.35,1.2
			c-0.07,0.06-0.11,0.14-0.16,0.22c-0.11,0.15-0.15,0.37-0.45,0.27c-0.23-0.08-0.52,0.19-0.56,0.43c-0.01,0.06-0.07,0.14-0.12,0.18
			c-0.32,0.24-0.65,0.48-0.98,0.72c-0.06,0.04-0.16,0.07-0.24,0.07c-0.21,0-0.71,0.31-0.72,0.5c-0.02,0.33-0.26,0.37-0.49,0.44
			c-0.31,0.08-0.56,0.2-0.71,0.51c-0.07,0.14-0.3,0.21-0.48,0.27c-0.3,0.1-0.62,0.13-0.9,0.25c-0.22,0.09-0.54,0.07-0.61,0.41
			c0,0.02-0.1,0.02-0.16,0.04c-0.18,0.06-0.36,0.12-0.54,0.19c-0.03,0.01-0.05,0.03-0.07,0.04c-0.31,0.09-0.62,0.17-0.92,0.28
			c-0.19,0.07-0.37,0.2-0.56,0.25c-0.96,0.24-1.92,0.46-2.88,0.69c-0.13,0.03-0.27,0.03-0.41,0.04c-0.01-0.03-0.02-0.06-0.03-0.08
			c0.05-0.03,0.11-0.09,0.16-0.1c1.01-0.19,1.96-0.54,2.9-0.94c0.04-0.02,0.09-0.04,0.14-0.04c0.79-0.01,1.41-0.48,2.09-0.78
			c0.52-0.24,1.03-0.52,1.53-0.8c0.33-0.18,0.64-0.38,0.96-0.58c0.07-0.04,0.11-0.12,0.17-0.19c-0.02-0.03-0.04-0.06-0.06-0.09
			c-0.23,0.12-0.47,0.25-0.76,0.4c0.04-0.13,0.06-0.2,0.09-0.27c-0.03,0-0.07-0.02-0.09-0.01c-0.18,0.1-0.37,0.2-0.55,0.32
			c-0.07,0.05-0.09,0.16-0.16,0.22c-0.09,0.09-0.19,0.2-0.3,0.24c-0.2,0.07-0.43,0.07-0.62,0.16c-0.39,0.18-0.76,0.41-1.15,0.59
			c-0.52,0.25-1.05,0.47-1.58,0.69c-0.09,0.04-0.2,0.03-0.3,0.04c-0.01-0.02-0.02-0.05-0.03-0.07c0.07-0.05,0.14-0.11,0.22-0.15
			c0.7-0.38,1.41-0.75,2.11-1.13c0.03-0.02,0.08-0.03,0.1-0.05c0.43-0.54,1.18-0.55,1.68-1c0.36-0.32,0.83-0.52,1.21-0.81
			c0.44-0.34,0.85-0.74,1.27-1.11c0.22-0.19,0.43-0.39,0.64-0.58c-0.03-0.04-0.06-0.07-0.08-0.11c-0.39,0.28-0.78,0.57-1.17,0.85
			c-0.02-0.02-0.04-0.05-0.07-0.07c0.06-0.07,0.12-0.15,0.19-0.21c0.68-0.58,1.38-1.14,2.03-1.75c1-0.94,1.92-1.96,2.73-3.07
			c0.14-0.19,0.24-0.43,0.35-0.64c-0.02-0.02-0.05-0.04-0.07-0.06c-0.07,0.05-0.15,0.09-0.2,0.15c-0.3,0.43-0.57,0.9-0.9,1.31
			c-0.33,0.41-0.63,0.85-1.11,1.13c-0.31,0.18-0.54,0.48-0.81,0.73c-0.04,0.04-0.06,0.13-0.1,0.14c-0.44,0.05-0.6,0.45-0.9,0.68
			c-0.24,0.19-0.46,0.39-0.71,0.57c-0.07,0.05-0.19,0.04-0.28,0.05c0.05-0.08,0.09-0.17,0.15-0.23c0.12-0.12,0.25-0.22,0.37-0.34
			c-0.03-0.04-0.07-0.07-0.1-0.11c-0.39,0.3-0.78,0.59-1.16,0.92c-0.37,0.33-0.81,0.6-1.23,0.87c-0.43,0.28-0.88,0.55-1.32,0.82
			c-0.44,0.26-0.87,0.54-1.32,0.78c-0.45,0.24-0.93,0.44-1.39,0.66c-0.02-0.03-0.03-0.05-0.05-0.08c0.06-0.04,0.11-0.1,0.18-0.13
			c0.78-0.43,1.57-0.85,2.35-1.31c0.41-0.24,0.79-0.54,1.19-0.82c0.06-0.04,0.12-0.11,0.15-0.17c0.02-0.05-0.01-0.12-0.01-0.18
			c-0.05,0.01-0.11,0.01-0.15,0.03c-0.48,0.27-0.97,0.54-1.44,0.82c-0.3,0.18-0.57,0.4-0.88,0.55c-0.47,0.23-0.97,0.42-1.45,0.63
			c-0.29,0.13-0.57,0.28-0.85,0.41c-0.04,0.02-0.1,0.02-0.15,0.02c-0.01-0.02-0.02-0.05-0.03-0.07c0.6-0.32,1.19-0.63,1.79-0.95
			c0-0.03-0.01-0.05-0.01-0.08c-0.09,0-0.19-0.03-0.26,0c-0.45,0.2-0.88,0.44-1.33,0.63c-0.4,0.17-0.83,0.3-1.24,0.46
			c-0.28,0.11-0.55,0.23-0.83,0.33c-0.09,0.03-0.2,0.03-0.3,0.05c-0.01-0.03-0.02-0.06-0.02-0.09c0.58-0.27,1.16-0.54,1.74-0.81
			c-0.01-0.03-0.01-0.06-0.02-0.09c-0.09-0.01-0.19-0.02-0.35-0.04c0.13-0.06,0.2-0.09,0.26-0.13c0.18-0.12,0.36-0.25,0.53-0.38
			c0.11-0.08,0.19-0.19,0.3-0.26c1-0.62,2-1.22,2.99-1.85c0.56-0.36,1.09-0.76,1.62-1.16C177.55,44.84,177.62,44.64,177.72,44.49
			c0.3,0.02,0.43-0.07,0.41-0.38C177.97,44.26,177.85,44.37,177.72,44.49z M179.37,10.72c0.02-0.02,0.04-0.05,0.06-0.07
			c-0.31-0.33-0.61-0.67-0.94-0.98c-0.21-0.2-0.49-0.33-0.7-0.53c-0.78-0.76-1.7-1.32-2.67-1.79c-0.17-0.08-0.38-0.08-0.58-0.09
			c-0.1-0.01-0.22,0.06-0.31,0.03c-0.46-0.17-0.94-0.32-1.35-0.56c-1.04-0.62-2.21-0.75-3.34-1.01c-0.65-0.15-1.34-0.14-2.01-0.16
			c-0.33-0.01-0.65,0.05-0.98,0.08c0,0.03-0.01,0.05-0.01,0.08c0.06,0.02,0.13,0.05,0.19,0.06c0.19,0.02,0.39,0.01,0.57,0.05
			c0.52,0.11,1.09-0.03,1.59,0.23c0.2,0.1,0.38,0.25,0.59,0.31c0.38,0.11,0.78,0.18,1.18,0.23c0.39,0.05,0.78,0.01,1.16,0.17
			c0.45,0.19,0.93,0.3,1.39,0.46c0.5,0.18,1.1,0.1,1.47,0.59c0.02,0.03,0.09,0.03,0.13,0.05c0.13,0.06,0.26,0.12,0.38,0.2
			c0.26,0.17,0.49,0.37,0.76,0.53c0.23,0.14,0.5,0.23,0.74,0.36c0.45,0.26,0.89,0.54,1.33,0.81c0.06,0.04,0.12,0.09,0.19,0.13
			c0.36,0.27,0.71,0.55,1.07,0.82C179.29,10.72,179.34,10.72,179.37,10.72z M160.16,6.74c-0.02-0.03-0.03-0.06-0.05-0.09
			c-0.92,0.22-1.73,0.67-2.45,1.28c0.47-0.17,0.91-0.38,1.35-0.61c0.22-0.11,0.44-0.24,0.66-0.36C159.83,6.88,160,6.81,160.16,6.74z
			 M175.69,43.16c0.35-0.04,1.77-1.5,1.77-1.8C176.64,41.76,176.41,42.7,175.69,43.16z M177.12,11.77c0.52,0.5,1.04,1.01,1.57,1.51
			C178.58,12.8,177.45,11.71,177.12,11.77z M148.97,17.77c0.03,0.02,0.05,0.03,0.08,0.05c0.29-0.14,1.2-1.77,1.1-2.07
			C149.74,16.45,149.36,17.11,148.97,17.77z M145.32,29.66c-0.02,0.42-0.16,0.87,0.21,1.23C145.44,30.48,145.64,30.03,145.32,29.66z
			 M144.71,16.78c-0.11,0.3-0.2,0.57-0.3,0.83c0.03,0.01,0.06,0.02,0.09,0.04c0.03-0.05,0.06-0.11,0.1-0.16
			c0.05-0.06,0.1-0.11,0.16-0.15C145.03,17.18,145.03,17.04,144.71,16.78z M149.8,31.58c-0.04,0.02-0.08,0.03-0.12,0.05
			c0.15,0.35,0.29,0.7,0.44,1.05c0.04-0.02,0.07-0.03,0.11-0.05C150.17,32.25,150.01,31.91,149.8,31.58z M179.2,41.58
			c-0.27,0.26-0.55,0.52-0.82,0.79C178.78,42.24,179.04,41.96,179.2,41.58z M151.77,16.45c0.03,0.01,0.07,0.03,0.1,0.04
			c0.17-0.33,0.34-0.66,0.51-0.99c-0.03-0.01-0.05-0.03-0.08-0.04C152.09,15.77,151.8,16.04,151.77,16.45z M145,21.89
			c0.05,0.01,0.1,0.03,0.16,0.04c0.07-0.29,0.15-0.57,0.22-0.86c-0.04-0.01-0.08-0.02-0.12-0.03
			C145.16,21.33,145.08,21.61,145,21.89z M180.76,12.02c0.03-0.03,0.05-0.05,0.08-0.08c-0.1-0.3-0.31-0.51-0.62-0.51
			C180.42,11.66,180.59,11.84,180.76,12.02z M179.64,14.31c0.05-0.03,0.1-0.07,0.15-0.1c-0.15-0.2-0.3-0.4-0.45-0.6
			c-0.03,0.02-0.07,0.05-0.1,0.07C179.37,13.89,179.5,14.1,179.64,14.31z M177.46,43.06c0.04,0.04,0.07,0.08,0.11,0.12
			c0.21-0.19,0.41-0.38,0.62-0.57c-0.02-0.03-0.05-0.05-0.07-0.08C177.89,42.71,177.68,42.88,177.46,43.06z M142.14,35.89
			c-0.04,0.02-0.08,0.04-0.12,0.06c0.09,0.19,0.18,0.38,0.27,0.57c0.04-0.02,0.09-0.04,0.13-0.06
			C142.33,36.26,142.24,36.07,142.14,35.89z M179.46,41.31c0.03,0.02,0.05,0.05,0.08,0.07c0.15-0.18,0.3-0.36,0.46-0.55
			c-0.03-0.03-0.06-0.05-0.09-0.08C179.76,40.94,179.61,41.13,179.46,41.31z M145.45,20.6c0.05,0.01,0.1,0.02,0.16,0.03
			c0.02-0.16,0.05-0.31,0.07-0.47c-0.04-0.01-0.09-0.02-0.13-0.02C145.51,20.29,145.48,20.44,145.45,20.6z"/>
		<path d="M181.04,21.92c0.12,0.56,0.24,1.11,0.38,1.67c0.02,0.07,0.09,0.12,0.15,0.17c0.06,0.06,0.2,0.11,0.19,0.15
			c-0.02,0.13-0.08,0.25-0.14,0.37c-0.03,0.07-0.13,0.13-0.12,0.18c0.07,0.43,0.16,0.86,0.24,1.29c0.01,0.07,0.01,0.13,0.02,0.2
			c0.04,0.35,0.1,0.69,0.11,1.04c0.01,0.25-0.04,0.51-0.07,0.76c-0.02,0.18-0.03,0.35-0.04,0.53c-0.02,0.43-0.02,0.85-0.04,1.28
			c-0.01,0.18-0.08,0.36-0.12,0.55c-0.06,0.3-0.1,0.61-0.16,0.91c-0.12,0.55-0.28,1.09-0.39,1.65c-0.1,0.51-0.2,1.01-0.42,1.48
			c-0.15,0.33-0.31,0.65-0.47,0.98c-0.02,0.04-0.05,0.08-0.07,0.13c-0.18,0.34-0.4,0.66-0.52,1.02c-0.14,0.44-0.46,0.76-0.69,1.15
			c-0.35,0.59-0.75,1.14-1.14,1.7c-0.05,0.08-0.19,0.09-0.29,0.14c-0.06,0.03-0.13,0.06-0.19,0.1c-0.09,0.08-0.17,0.16-0.31,0.2
			c0.02-0.05,0.02-0.1,0.05-0.14c0.65-0.89,1.35-1.75,1.95-2.68c0.46-0.71,0.84-1.49,1.2-2.27c0.29-0.61,0.52-1.24,0.73-1.87
			c0.14-0.42,0.23-0.87,0.31-1.31c0.31-1.75,0.46-3.52,0.32-5.3c-0.07-0.92-0.2-1.84-0.32-2.75c-0.04-0.33-0.14-0.66-0.2-0.99
			c-0.02-0.1-0.03-0.2-0.04-0.3C180.98,21.93,181.01,21.92,181.04,21.92z"/>
		<path d="M156.04,4.94c-0.15,0.1-0.3,0.2-0.45,0.29c-0.43,0.26-0.86,0.5-1.28,0.77c-0.56,0.36-1.11,0.72-1.64,1.13
			c-0.25,0.19-0.39,0.52-0.62,0.74c-0.41,0.39-0.86,0.73-1.26,1.13c-0.43,0.43-0.81,0.9-1.21,1.35c-0.09,0.1-0.2,0.19-0.36,0.24
			c0.09-0.13,0.18-0.27,0.26-0.4c-0.02-0.02-0.05-0.04-0.07-0.06c-0.31,0.34-0.61,0.68-0.92,1.02c-0.02-0.02-0.05-0.04-0.07-0.06
			c0.07-0.11,0.12-0.23,0.2-0.33c0.31-0.36,0.57-0.75,0.97-1.05c0.42-0.31,0.74-0.75,1.11-1.14c0.32-0.34,0.63-0.7,1.06-0.91
			c0.05-0.02,0.11-0.06,0.13-0.11c0.19-0.51,0.67-0.69,1.09-0.94c0.59-0.36,1.17-0.73,1.76-1.08c0.17-0.11,0.36-0.18,0.54-0.28
			c0.12-0.07,0.24-0.16,0.36-0.23c0.12-0.07,0.24-0.13,0.35-0.19C156.01,4.87,156.03,4.91,156.04,4.94z"/>
		<path d="M168.91,1.25c-0.11,0.38-0.11,0.38,0.25,0.52c-0.07,0.01-0.14,0.02-0.22,0.02c-0.8,0-1.6,0-2.4,0.01
			c-0.1,0-0.2,0.06-0.3,0.08c-0.15,0.03-0.31,0.06-0.35-0.17c-0.01-0.04-0.05-0.09-0.09-0.11c-0.02-0.01-0.08,0.04-0.1,0.07
			c-0.04,0.05-0.05,0.16-0.09,0.16c-0.34,0.06-0.67,0.11-1.01,0.16c-0.01,0-0.02-0.03-0.04-0.06c0.16-0.11,0.3-0.25,0.48-0.32
			c0.53-0.22,1.06-0.47,1.65-0.47c0.05,0,0.1,0.01,0.14-0.01C167.42,0.86,168.21,0.9,168.91,1.25z"/>
		<path d="M148.36,9.71c0.01-0.12,0.01-0.24,0.02-0.36c-0.08-0.03-0.16-0.05-0.25-0.08c0.1-0.42,0.33-0.75,0.73-1.01
			c0.03,0.13,0.05,0.24,0.1,0.42c0.21-0.3,0.38-0.55,0.55-0.81c0.02,0.02,0.05,0.03,0.07,0.05C149.27,8.57,149.15,9.35,148.36,9.71z
			"/>
		<path d="M168.19,2.41c-0.38,0.34-0.38,0.34-2.06,0.41c0.01-0.06,0.04-0.12,0.04-0.18c0-0.05-0.02-0.11-0.04-0.21
			C166.82,2.53,167.47,2.08,168.19,2.41z"/>
		<path d="M161.68,4.12c1.37-0.59,2.78-0.97,4.29-0.89c-0.41,0.05-0.82,0.08-1.22,0.16c-0.62,0.11-1.25,0.19-1.84,0.46
			C162.53,4.01,162.09,4.03,161.68,4.12z"/>
		<path d="M182.08,24.11c0.26,0.2,0.45,2.61,0.23,2.85C182.23,25.99,182.16,25.09,182.08,24.11z"/>
		<path d="M160.2,3.03c0.41-0.4,1.95-0.84,2.32-0.69C161.78,2.56,161.01,2.79,160.2,3.03z"/>
		<path d="M162.77,2.42c0.02-0.29,0.1-0.41,0.36-0.4c0.19,0.01,0.39-0.04,0.59-0.05c0.06,0,0.13,0.05,0.19,0.08
			c-0.03,0.06-0.06,0.17-0.1,0.18C163.47,2.31,163.13,2.36,162.77,2.42z"/>
		<path d="M171.92,44.24c0.63-0.23,1.04-0.84,1.7-1.02c0.02,0.04,0.04,0.07,0.07,0.11c-0.56,0.34-1.12,0.69-1.68,1.03
			C171.97,44.32,171.95,44.28,171.92,44.24z"/>
		<path d="M175.84,40.7c0.39-0.34,0.78-0.67,1.17-1.01c0.03,0.02,0.06,0.05,0.09,0.07c-0.03,0.06-0.06,0.13-0.1,0.17
			c-0.27,0.24-0.54,0.48-0.81,0.71c-0.08,0.07-0.19,0.11-0.29,0.16C175.87,40.77,175.86,40.74,175.84,40.7z"/>
		<path d="M166.07,0.82c0.16-0.26,0.71-0.38,1.15-0.26C167.11,0.78,166.62,0.89,166.07,0.82z"/>
		<path d="M148,12.08c-0.3,0.45-0.59,0.9-0.89,1.34c-0.03-0.02-0.05-0.04-0.08-0.05c0.21-0.51,0.52-0.94,0.9-1.33
			C147.95,12.05,147.97,12.06,148,12.08z"/>
		<path d="M150.86,10.56c-0.32,0.38-0.65,0.76-0.97,1.13c-0.03-0.03-0.07-0.06-0.1-0.09c0.32-0.38,0.63-0.77,0.95-1.15
			C150.77,10.49,150.81,10.53,150.86,10.56z"/>
		<path d="M165.02,2.62c0.34-0.07,0.63-0.13,0.92-0.19c0.01,0.03,0.03,0.05,0.04,0.08c-0.06,0.05-0.11,0.12-0.18,0.13
			c-0.13,0.03-0.21,0.05-0.31,0.19C165.36,3.04,165.17,2.84,165.02,2.62z"/>
		<path d="M180.8,21.41c-0.15-0.47-0.31-0.93-0.46-1.4c0.04-0.01,0.08-0.03,0.12-0.04c0.16,0.46,0.33,0.93,0.49,1.39
			C180.9,21.38,180.85,21.4,180.8,21.41z"/>
		<path d="M159.73,9.85c-0.28,0.17-0.55,0.35-0.83,0.52c-0.02-0.01-0.05-0.03-0.07-0.04c0.03-0.13,0.07-0.27,0.11-0.44
			c0.11,0.08,0.18,0.12,0.22,0.15c0.18-0.12,0.33-0.22,0.49-0.32C159.67,9.77,159.7,9.81,159.73,9.85z"/>
		<path d="M175.09,41.69c0.22-0.36,0.58-0.53,0.95-0.68c0.02,0.03,0.04,0.06,0.07,0.1c-0.32,0.22-0.65,0.43-0.97,0.65
			C175.12,41.73,175.1,41.71,175.09,41.69z"/>
		<path d="M149.98,13.24c-0.21,0.27-0.42,0.55-0.67,0.88C149.29,13.58,149.67,13.43,149.98,13.24z"/>
		<path d="M180.26,6.35c0.26,0.16,0.51,0.32,0.77,0.48c-0.03,0.04-0.05,0.08-0.08,0.13c-0.26-0.16-0.51-0.32-0.77-0.48
			C180.2,6.44,180.23,6.4,180.26,6.35z"/>
		<path d="M168.88,48.7c0.37-0.46,0.51-0.52,0.75-0.29C169.36,48.52,169.12,48.61,168.88,48.7z"/>
		<path d="M152.25,9.13c0.27-0.25,0.53-0.5,0.8-0.75c0.02,0.02,0.05,0.05,0.07,0.07c-0.26,0.26-0.51,0.52-0.77,0.78
			C152.31,9.2,152.28,9.17,152.25,9.13z"/>
		<path d="M153.15,8.26c0.23-0.16,0.43-0.3,0.64-0.44C153.69,8.23,153.44,8.39,153.15,8.26z"/>
		<path d="M164.48,3.89c0.42-0.05,0.84-0.1,1.26-0.15c0,0.03,0.01,0.07,0.01,0.1c-0.42,0.04-0.84,0.08-1.26,0.12
			C164.49,3.94,164.49,3.91,164.48,3.89z"/>
		<path d="M179.56,17.84c0.23,0.22,0.28,0.54,0.38,0.82c-0.03,0.01-0.05,0.03-0.08,0.04c-0.13-0.27-0.26-0.53-0.4-0.8
			C179.5,17.88,179.53,17.86,179.56,17.84z"/>
		<path d="M146.92,17c0.13-0.25,0.26-0.51,0.39-0.76c0.04,0.02,0.09,0.05,0.13,0.07c-0.13,0.25-0.27,0.5-0.4,0.76
			C147,17.04,146.96,17.02,146.92,17z"/>
		<path d="M174.21,42.61c-0.26,0.16-0.51,0.33-0.77,0.49c-0.02-0.03-0.04-0.05-0.05-0.08c0.25-0.18,0.5-0.36,0.75-0.54
			C174.16,42.52,174.19,42.56,174.21,42.61z"/>
		<path d="M151.6,33.34c0.17,0.25,0.31,0.46,0.45,0.66c-0.02,0.02-0.04,0.03-0.07,0.05C151.77,33.93,151.57,33.61,151.6,33.34z"/>
		<path d="M153.07,36.11c0.22,0.22,0.44,0.45,0.66,0.67c-0.01,0.01-0.02,0.02-0.03,0.03c-0.21-0.23-0.42-0.46-0.63-0.69
			C153.06,36.13,153.07,36.12,153.07,36.11z"/>
		<path d="M167.16,0.12c0.26-0.04,0.52-0.08,0.77-0.12c0.01,0.04,0.01,0.08,0.02,0.12c-0.26,0.04-0.52,0.08-0.77,0.11
			C167.17,0.2,167.16,0.16,167.16,0.12z"/>
		<path d="M179.99,19.12c0.21,0.18,0.41,0.37,0.25,0.69C180.15,19.58,180.07,19.35,179.99,19.12z"/>
		<path d="M140.76,23.51c0-0.36,0-0.63,0-0.88C140.97,22.81,141,23.07,140.76,23.51z"/>
		<path d="M156.16,10.23c-0.06-0.08-0.09-0.1-0.08-0.1c0.09-0.13,0.17-0.26,0.26-0.4c0.04,0.02,0.1,0.07,0.1,0.07
			C156.35,9.95,156.26,10.08,156.16,10.23z"/>
		<path d="M146.52,15.97c-0.1,0.21-0.2,0.41-0.31,0.62c-0.02-0.01-0.05-0.02-0.07-0.03c0-0.25,0.17-0.44,0.3-0.63
			C146.46,15.94,146.49,15.96,146.52,15.97z"/>
		<path d="M190.35,19.43c0.19,0.14,0.23,0.32,0.04,0.59c-0.06-0.23-0.1-0.4-0.14-0.57C190.28,19.45,190.31,19.44,190.35,19.43z"/>
		<path d="M182.21,28.9c0.03-0.2,0.05-0.39,0.08-0.59c0.04,0,0.08,0.01,0.11,0.01c0.11,0.21-0.05,0.39-0.1,0.59
			C182.27,28.91,182.24,28.9,182.21,28.9z"/>
		<path d="M190.59,20.91c-0.03-0.17-0.07-0.33-0.11-0.52C190.74,20.46,190.77,20.56,190.59,20.91z"/>
		<path d="M180.65,7.03c0.22,0.2,0.45,0.39,0.67,0.59c-0.01,0.02-0.03,0.03-0.04,0.05c-0.23-0.18-0.47-0.37-0.7-0.55
			C180.61,7.09,180.63,7.06,180.65,7.03z"/>
		<path d="M146.97,15.1c-0.1,0.18-0.19,0.37-0.29,0.55c-0.03-0.02-0.07-0.03-0.1-0.05c0.1-0.18,0.2-0.36,0.3-0.55
			C146.91,15.07,146.94,15.09,146.97,15.1z"/>
		<path d="M152.42,38.45c0.15,0.11,0.3,0.22,0.44,0.33c-0.02,0.03-0.05,0.07-0.07,0.1c-0.15-0.11-0.29-0.22-0.44-0.33
			C152.37,38.51,152.39,38.48,152.42,38.45z"/>
		<path class="st0" d="M177.12,11.77c0.33-0.05,1.46,1.03,1.57,1.51C178.17,12.77,177.64,12.27,177.12,11.77z"/>
		<path class="st0" d="M180.76,12.02c-0.17-0.18-0.34-0.36-0.55-0.59c0.32,0.01,0.53,0.21,0.62,0.51
			C180.81,11.97,180.79,11.99,180.76,12.02z"/>
	</g>
	<g>
		<path class="st1" d="M20.39,28.2c2.97,2.56,5.36,6.41,8.68,17.47l0.47,1.51h-2.45l-0.23-0.82c-3.84-12.58-6.17-15.2-9.73-17.82
			H2.33v17.47v1.17H0v-1.17L0.06,8.8V7.64h1.17l16.19-0.06c6.52,0,11.71,4.78,11.71,10.54C29.12,22.95,25.45,27.03,20.39,28.2z
			 M13.69,26.22h3.79c5.07,0,9.32-3.55,9.32-8.1c0-4.6-4.25-8.21-9.38-8.21H2.33v16.37C6.12,26.27,9.9,26.22,13.69,26.22z"/>
		<path class="st1" d="M76.18,7.58h1.17v2.33h-1.17H51.72v16.31h17.59h1.17v2.33h-1.17H51.72v16.31h24.46h1.17v2.33h-1.17H50.55
			h-1.17v-1.17V28.55v-2.33V8.74V7.58h1.17H76.18z"/>
		<path class="st1" d="M98.78,47.18h-1.17v-1.17V8.74V7.58h1.17h14.04h0.06c9.09,0.82,15.9,9.61,15.03,19.8
			c0.87,10.19-5.94,18.99-15.03,19.8h-0.06h-0.06H98.78z M99.94,44.85h12.76c7.86-0.7,13.63-8.56,12.87-17.47v-0.12
			c0.76-8.79-5.01-16.66-12.87-17.36H99.94V44.85z"/>
	</g>
	<g>
		<path class="st1" d="M207,46.02v1.17h-2.33v-1.17V8.74V7.58h1.75l0.35,0.47l24.64,34.36l0.06-33.66V7.58h2.33v1.16l-0.06,37.28
			v1.17h-1.75l-0.35-0.47L207,12.35V46.02z"/>
		<path class="st1" d="M257.56,47.18h-1.17v-1.17V8.74V7.58h1.17h14.04h0.06c9.09,0.82,15.9,9.61,15.03,19.8
			c0.87,10.19-5.94,18.99-15.03,19.8h-0.06h-0.06H257.56z M258.72,44.85h12.75c7.86-0.7,13.63-8.56,12.87-17.47v-0.12
			c0.76-8.79-5.01-16.66-12.87-17.36h-12.75V44.85z"/>
		<path class="st1" d="M309.04,37.86h-0.76l-3.79,8.62l-0.29,0.7h-2.56l0.76-1.63l16.31-37.28l0.29-0.7h1.51l0.29,0.7l16.31,37.28
			l0.76,1.63h-2.56l-0.29-0.7l-3.79-8.62h-0.87H309.04z M330.24,35.53l-10.48-23.88l-10.48,23.88H330.24z"/>
	</g>
	<path class="st1" d="M375.52,40.57c-2.83,3.54-6.49,6.61-11.68,6.61c-12.51,0.06-15.87-10.62-12.39-17.94
		c1.36-2.77,4.72-5.19,8.2-7.38c-2.12-3.24-3.42-5.9-3.42-7.32v-0.06c0.12-5.31,4.31-7.43,7.61-7.49c3.36-0.06,7.85,2.36,7.85,7.49
		c0.06,2.48-3.6,5.07-8.38,7.85c-0.18,0.12-0.35,0.18-0.53,0.29c3.13,4.31,7.67,9.56,12.39,14.4c3.13-4.42,5.49-8.38,8.03-8.44
		l1.18-0.06v2.42h-1.18c-2.12,0.06-3.78,4.13-6.25,7.67l-0.06,0.06c2.42,2.36,4.78,4.54,7.08,6.43l2.54,2.06h-3.72l-0.35-0.29
		C380.18,44.99,377.82,42.87,375.52,40.57z M361,23.75c-3.19,1.95-6.2,4.01-7.43,6.55c-2.89,6.02,0.24,14.57,10.27,14.52
		c4.54,0,7.55-2.83,9.97-5.9C368.91,33.9,364.25,28.35,361,23.75z M361.47,20.74c0.24-0.18,0.41-0.29,0.65-0.41
		c3.48-2.06,7.26-3.72,7.2-5.84c0-3.6-3.19-5.19-5.49-5.13c-2.24,0.06-5.13,1.47-5.25,5.19C358.58,15.79,359.64,18.03,361.47,20.74z
		"/>
	<path class="st1" d="M429.72,37.44l2.01,1.18c-2.42,4.31-8.56,8.5-15.16,8.5c-9.74,0-17.7-8.85-17.7-20.06S406.82,7,416.56,7
		c6.55,0,12.8,4.19,15.1,8.61l-2.12,1.06c-1.95-3.84-7.37-7.32-12.98-7.32c-8.56,0-15.34,8.02-15.34,17.7
		c0,9.68,6.78,17.7,15.34,17.7C422.22,44.76,427.53,41.16,429.72,37.44z"/>
	<path class="st1" d="M447.78,27.06c0-11.21,8.03-20.06,17.7-20.06c9.68,0,17.7,8.85,17.7,20.06s-8.02,20.06-17.7,20.06
		C455.8,47.12,447.78,38.27,447.78,27.06z M450.14,27.06c0,9.68,6.84,17.7,15.34,17.7c8.5,0,15.34-8.03,15.34-17.7
		c0-9.68-6.84-17.7-15.34-17.7C456.98,9.36,450.14,17.38,450.14,27.06z"/>
	<g>
		<path class="st1" d="M0,66.38v-0.54h1.08v0.54v17.75v0.54H0v-0.54V66.38z"/>
		<path class="st1" d="M4.13,78.21c0-3.6,2.7-6.45,5.94-6.45c2,0,3.78,1.08,4.86,2.74v-2.21v-0.54H16v0.54v5.92v5.92v0.54h-1.08
			v-0.54v-2.21c-1.08,1.67-2.86,2.74-4.86,2.74C6.83,84.66,4.13,81.81,4.13,78.21z M5.21,78.21c0,2.96,2.16,5.38,4.86,5.38
			s4.86-2.42,4.86-5.38c0-2.96-2.16-5.38-4.86-5.38S5.21,75.25,5.21,78.21z"/>
		<path class="st1" d="M32.47,69.58h-0.54V68.5h0.54h0.03h0.54v1.08h-0.54H32.47z M31.93,72.29v-0.54h1.08v0.54v11.83v0.54h-1.08
			v-0.54V72.29z"/>
		<path class="st1" d="M45.66,74.07c0.78,1.59-0.3-1.64,4.18-2.31c2.46-0.38,4.53,2.18,4.53,5.03v7.34l0.03,0.56h-1.05l-0.03-0.54
			l-0.03-7.37c0-2.15-1.51-3.95-3.45-3.95s-3.45,1.8-3.45,3.95v0.54v6.8l0.03,0.56h-1.05l-0.03-0.54c0-2.29-0.03-4.55-0.03-6.83
			v-0.54c0-2.15-1.51-3.95-3.45-3.95c-1.94,0-3.45,1.8-3.45,3.95v0.54v6.8v0.54h-1.08v-0.54v-6.8v-0.54v-4.49v-0.54h1.08v0.54v1.21
			c0.84-1.08,2.08-1.75,3.45-1.75C43.58,71.75,44.91,72.48,45.66,74.07z"/>
		<path class="st1" d="M59.78,74.52c1.08-1.69,2.89-2.8,4.88-2.77c3.21,0,5.91,2.85,5.91,6.45c0,3.6-2.7,6.45-5.94,6.45
			c-2,0-3.78-1.08-4.86-2.74v7.21v0.54H58.7v-0.54V78.21v-5.92v-0.54h1.08v0.54V74.52z M59.78,78.21c0,2.96,2.16,5.38,4.86,5.38
			s4.86-2.42,4.86-5.38c0-2.96-2.16-5.38-4.83-5.38C61.96,72.8,59.83,75.25,59.78,78.21z"/>
		<path class="st1" d="M72.73,78.21c0-3.6,2.7-6.45,5.94-6.45c3.24,0,5.94,2.85,5.94,6.45c0,3.6-2.7,6.45-5.94,6.45
			C75.43,84.66,72.73,81.81,72.73,78.21z M73.81,78.21c0,2.96,2.16,5.38,4.86,5.38s4.86-2.42,4.86-5.38c0-2.96-2.16-5.38-4.86-5.38
			S73.81,75.25,73.81,78.21z"/>
		<path class="st1" d="M88.92,74.2c1.08-1.61,2.91-2.45,5.07-2.45h0.54v1.08H94c-2.94,0-5.05,1.88-5.07,5.24v0.13v0.54v5.38v0.54
			h-1.08v-0.54v-5.38v-0.54c0-0.05,0-0.08,0-0.13v-5.78v-0.54h1.08v0.54V74.2z"/>
		<path class="st1" d="M98.61,72.83v8.31c0.03,1.64,1.24,2.45,3.21,2.45h0.54v1.08h-0.54c-2.83,0-4.26-1.29-4.29-3.52v-8.31h-1.65
			h-0.54v-1.08h0.54h1.65v-2.82v-0.54h1.08v0.54v2.82h3.21h0.54v1.08h-0.54H98.61z"/>
		<path class="st1" d="M103.98,78.21c0-3.6,2.7-6.45,5.94-6.45c2,0,3.78,1.08,4.86,2.74v-2.21v-0.54h1.08v0.54v5.92v5.92v0.54h-1.08
			v-0.54v-2.21c-1.08,1.67-2.86,2.74-4.86,2.74C106.68,84.66,103.98,81.81,103.98,78.21z M105.06,78.21c0,2.96,2.16,5.38,4.86,5.38
			c2.7,0,4.86-2.42,4.86-5.38c0-2.96-2.16-5.38-4.86-5.38C107.22,72.83,105.06,75.25,105.06,78.21z"/>
		<path class="st1" d="M130.43,84.12l0.03,0.56h-1.05l-0.03-0.54l-0.03-6.94c0-2.39-1.78-4.38-4.05-4.38
			c-2.27,0-4.05,1.99-4.05,4.38v0.54v6.37v0.54h-1.08v-0.54v-6.37v-0.54v-4.92v-0.54h1.08v0.54v1.56c0.94-1.26,2.4-2.1,4.05-2.1
			c2.81,0,5.13,2.42,5.13,5.46V84.12z"/>
		<path class="st1" d="M143.49,81.54l0.86,0.59c-0.76,1.1-2.16,2.53-4.83,2.53c-3.21,0-5.86-2.85-5.86-6.45
			c0-3.6,2.64-6.45,5.86-6.45c2.67,0,4.1,1.29,4.83,2.37l-0.86,0.59c-0.62-0.86-1.78-1.88-3.97-1.88c-2.67,0-4.78,2.42-4.78,5.38
			c0,2.96,2.1,5.38,4.78,5.38C141.71,83.59,142.84,82.43,143.49,81.54z"/>
		<path class="st1" d="M148.24,69.58h-0.54V68.5h0.54h0.03h0.54v1.08h-0.54H148.24z M147.7,72.29v-0.54h1.08v0.54v11.83v0.54h-1.08
			v-0.54V72.29z"/>
		<path class="st1" d="M152.02,78.21c0-3.6,2.7-6.45,5.94-6.45c2,0,3.78,1.08,4.86,2.74v-2.21v-0.54h1.08v0.54v5.92v5.92v0.54h-1.08
			v-0.54v-2.21c-1.08,1.67-2.86,2.74-4.86,2.74C154.72,84.66,152.02,81.81,152.02,78.21z M153.1,78.21c0,2.96,2.16,5.38,4.86,5.38
			c2.7,0,4.86-2.42,4.86-5.38c0-2.96-2.16-5.38-4.86-5.38C155.26,72.83,153.1,75.25,153.1,78.21z"/>
		<path class="st1" d="M178.74,78.21c0-3.6,2.7-6.45,5.94-6.45c2,0,3.78,1.08,4.86,2.74v-8.12v-0.54h1.08v0.54v11.83v5.92v0.54
			h-1.08v-0.54v-2.21c-1.08,1.67-2.86,2.74-4.86,2.74C181.44,84.66,178.74,81.81,178.74,78.21z M179.82,78.21
			c0,2.96,2.16,5.38,4.86,5.38c2.7,0,4.86-2.42,4.86-5.38c0-2.96-2.16-5.38-4.86-5.38C181.98,72.83,179.82,75.25,179.82,78.21z"/>
		<path class="st1" d="M204.05,81.43l0.86,0.65c-0.81,1.13-2.32,2.61-5.13,2.58c-3.26,0-5.94-2.85-5.94-6.45
			c0-3.6,2.67-6.45,5.94-6.45c3.24,0,5.94,2.85,5.94,6.45v0.54h-0.54h-10.23c0.24,2.72,2.27,4.84,4.83,4.84
			C202.11,83.61,203.35,82.4,204.05,81.43z M194.96,77.67h9.69c0-2.42-2.16-4.84-4.86-4.84C197.22,72.83,195.2,74.95,194.96,77.67z"
			/>
		<path class="st1" d="M220.57,66.38v-0.54h1.08v0.54v17.75v0.54h-1.08v-0.54V66.38z"/>
		<path class="st1" d="M224.7,78.21c0-3.6,2.7-6.45,5.94-6.45c2,0,3.78,1.08,4.86,2.74v-2.21v-0.54h1.08v0.54v5.92v5.92v0.54h-1.08
			v-0.54v-2.21c-1.08,1.67-2.86,2.74-4.86,2.74C227.4,84.66,224.7,81.81,224.7,78.21z M225.78,78.21c0,2.96,2.16,5.38,4.86,5.38
			c2.7,0,4.86-2.42,4.86-5.38c0-2.96-2.16-5.38-4.86-5.38C227.94,72.83,225.78,75.25,225.78,78.21z"/>
		<path class="st1" d="M249.39,75.22h-1.08c0-1.4-1.67-2.39-3.48-2.39s-3.48,1-3.48,2.39c0,2.63,8.53,2.2,8.5,5.97
			c0,1.8-2.08,3.47-5.02,3.47c-2.94,0-5.02-1.67-5.02-3.47h1.08c0,1.43,1.92,2.39,3.94,2.39s3.94-0.97,3.94-2.39
			c0-2.66-8.47-2.18-8.5-5.97c0-1.83,1.94-3.47,4.56-3.47S249.39,73.39,249.39,75.22z"/>
		<path class="st1" d="M264.69,78.23V66.38v-0.54h1.08v0.54v8.12c1.08-1.67,2.86-2.74,4.86-2.74c3.24,0,5.94,2.85,5.94,6.45
			c0,3.6-2.7,6.45-5.94,6.45c-2,0-3.78-1.08-4.86-2.74v2.21v0.54h-1.08v-0.54V78.23z M265.77,78.23c0,2.93,2.16,5.35,4.86,5.35
			c2.7,0,4.86-2.42,4.86-5.38c0-2.96-2.16-5.38-4.86-5.38C267.93,72.83,265.77,75.25,265.77,78.23z"/>
		<path class="st1" d="M279.27,72.29l0.03-0.51h1.11l-0.03,0.54l-0.03,7.56c0,2.07,1.89,3.71,4.15,3.71s4.13-1.64,4.13-3.71v-7.58
			l0.03-0.51h1.11l-0.03,0.54l-0.03,7.56c0,2.61-2.29,4.79-5.21,4.79s-5.23-2.18-5.23-4.79V72.29z"/>
		<path class="st1" d="M302.61,81.43l0.86,0.65c-0.81,1.13-2.32,2.61-5.13,2.58c-3.27,0-5.94-2.85-5.94-6.45
			c0-3.6,2.67-6.45,5.94-6.45c3.24,0,5.94,2.85,5.94,6.45v0.54h-0.54h-10.23c0.24,2.72,2.27,4.84,4.83,4.84
			C300.67,83.61,301.91,82.4,302.61,81.43z M293.51,77.67h9.69c0-2.42-2.16-4.84-4.86-4.84C295.78,72.83,293.76,74.95,293.51,77.67z
			"/>
		<path class="st1" d="M317.77,84.12l0.03,0.56h-1.05l-0.03-0.54l-0.03-6.94c0-2.39-1.78-4.38-4.05-4.38
			c-2.27,0-4.05,1.99-4.05,4.38v0.54v6.37v0.54h-1.08v-0.54v-6.37v-0.54v-4.92v-0.54h1.08v0.54v1.56c0.94-1.26,2.4-2.1,4.05-2.1
			c2.81,0,5.13,2.42,5.13,5.46V84.12z"/>
		<path class="st1" d="M321.02,78.21c0-3.6,2.7-6.45,5.94-6.45c2,0,3.78,1.08,4.86,2.74v-2.21v-0.54h1.08v0.54v5.92v5.92v0.54h-1.08
			v-0.54v-2.21c-1.08,1.67-2.86,2.74-4.86,2.74C323.71,84.66,321.02,81.81,321.02,78.21z M322.1,78.21c0,2.96,2.16,5.38,4.86,5.38
			c2.7,0,4.86-2.42,4.86-5.38c0-2.96-2.16-5.38-4.86-5.38C324.25,72.83,322.1,75.25,322.1,78.21z"/>
		<path class="st1" d="M345.71,75.22h-1.08c0-1.4-1.67-2.39-3.48-2.39c-1.81,0-3.48,1-3.48,2.39c0,2.63,8.53,2.2,8.5,5.97
			c0,1.8-2.08,3.47-5.02,3.47c-2.94,0-5.02-1.67-5.02-3.47h1.08c0,1.43,1.92,2.39,3.94,2.39c2.02,0,3.94-0.97,3.94-2.39
			c0-2.66-8.47-2.18-8.5-5.97c0-1.83,1.94-3.47,4.56-3.47S345.71,73.39,345.71,75.22z"/>
		<path class="st1" d="M369.75,81.54l0.86,0.59c-0.76,1.1-2.16,2.53-4.83,2.53c-3.21,0-5.86-2.85-5.86-6.45
			c0-3.6,2.64-6.45,5.86-6.45c2.67,0,4.1,1.29,4.83,2.37l-0.86,0.59c-0.62-0.86-1.78-1.88-3.97-1.88c-2.67,0-4.78,2.42-4.78,5.38
			c0,2.96,2.1,5.38,4.78,5.38C367.97,83.59,369.1,82.43,369.75,81.54z"/>
		<path class="st1" d="M372.88,78.21c0-3.6,2.7-6.45,5.94-6.45c3.24,0,5.94,2.85,5.94,6.45c0,3.6-2.7,6.45-5.94,6.45
			C375.58,84.66,372.88,81.81,372.88,78.21z M373.96,78.21c0,2.96,2.16,5.38,4.86,5.38c2.7,0,4.86-2.42,4.86-5.38
			c0-2.96-2.16-5.38-4.86-5.38C376.12,72.83,373.96,75.25,373.96,78.21z"/>
		<path class="st1" d="M396.34,74.07c0.78,1.59-0.3-1.64,4.18-2.31c2.45-0.38,4.53,2.18,4.53,5.03v7.34l0.03,0.56h-1.05L404,84.15
			l-0.03-7.37c0-2.15-1.51-3.95-3.45-3.95c-1.94,0-3.45,1.8-3.45,3.95v0.54v6.8l0.03,0.56h-1.05l-0.03-0.54
			c0-2.29-0.03-4.55-0.03-6.83v-0.54c0-2.15-1.51-3.95-3.45-3.95c-1.94,0-3.45,1.8-3.45,3.95v0.54v6.8v0.54H388v-0.54v-6.8v-0.54
			v-4.49v-0.54h1.08v0.54v1.21c0.84-1.08,2.08-1.75,3.45-1.75C394.26,71.75,395.58,72.48,396.34,74.07z"/>
		<path class="st1" d="M410.45,74.52c1.08-1.69,2.89-2.8,4.88-2.77c3.21,0,5.91,2.85,5.91,6.45c0,3.6-2.7,6.45-5.94,6.45
			c-2,0-3.78-1.08-4.86-2.74v7.21v0.54h-1.08v-0.54V78.21v-5.92v-0.54h1.08v0.54V74.52z M410.45,78.21c0,2.96,2.16,5.38,4.86,5.38
			s4.86-2.42,4.86-5.38c0-2.96-2.16-5.38-4.83-5.38C412.64,72.8,410.51,75.25,410.45,78.21z"/>
		<path class="st1" d="M423.41,78.21c0-3.6,2.7-6.45,5.94-6.45c2,0,3.78,1.08,4.86,2.74v-2.21v-0.54h1.08v0.54v5.92v5.92v0.54h-1.08
			v-0.54v-2.21c-1.08,1.67-2.86,2.74-4.86,2.74C426.1,84.66,423.41,81.81,423.41,78.21z M424.48,78.21c0,2.96,2.16,5.38,4.86,5.38
			c2.7,0,4.86-2.42,4.86-5.38c0-2.96-2.16-5.38-4.86-5.38C426.64,72.83,424.48,75.25,424.48,78.21z"/>
		<path class="st1" d="M450.39,84.12l0.03,0.56h-1.05l-0.03-0.54l-0.03-6.94c0-2.39-1.78-4.38-4.05-4.38s-4.05,1.99-4.05,4.38v0.54
			v6.37v0.54h-1.08v-0.54v-6.37v-0.54v-4.92v-0.54h1.08v0.54v1.56c0.94-1.26,2.4-2.1,4.05-2.1c2.81,0,5.13,2.42,5.13,5.46V84.12z
			 M443.16,70.68h-1.08c0-1.1,1-2.13,2.02-2.15c2.02,0,2.05,1.64,2.97,1.61c0.57,0,0.94-0.4,0.94-1.08h1.08
			c0,1.08-0.94,2.18-2.02,2.15c-2.02,0-2-1.59-2.97-1.61C443.54,69.6,443.16,70.01,443.16,70.68z"/>
		<path class="st1" d="M453.55,69.93l-0.16,0.21h-1.4l0.7-0.86l2.16-2.69l0.16-0.21h1.4l-0.7,0.86L453.55,69.93z M453.66,72.29
			v-0.54h1.08v0.54v11.83v0.54h-1.08v-0.54V72.29z"/>
		<path class="st1" d="M458.03,78.21c0-3.6,2.7-6.45,5.94-6.45c2,0,3.78,1.08,4.86,2.74v-2.21v-0.54h1.08v0.54v5.92v5.92v0.54h-1.08
			v-0.54v-2.21c-1.08,1.67-2.86,2.74-4.86,2.74C460.73,84.66,458.03,81.81,458.03,78.21z M459.11,78.21c0,2.96,2.16,5.38,4.86,5.38
			c2.7,0,4.86-2.42,4.86-5.38c0-2.96-2.16-5.38-4.86-5.38C461.27,72.83,459.11,75.25,459.11,78.21z"/>
		<path class="st1" d="M482.72,75.22h-1.08c0-1.4-1.67-2.39-3.48-2.39c-1.81,0-3.48,1-3.48,2.39c0,2.63,8.53,2.2,8.5,5.97
			c0,1.8-2.08,3.47-5.02,3.47c-2.94,0-5.02-1.67-5.02-3.47h1.08c0,1.43,1.92,2.39,3.94,2.39c2.02,0,3.94-0.97,3.94-2.39
			c0-2.66-8.47-2.18-8.5-5.97c0-1.83,1.94-3.47,4.56-3.47S482.72,73.39,482.72,75.22z"/>
	</g>
</g>
</svg>
