<?xml version="1.0" encoding="utf-8"?>
<!-- Generator: Adobe Illustrator 26.3.1, SVG Export Plug-In . SVG Version: 6.00 Build 0)  -->
<svg version="1.1" id="Capa_1" xmlns="http://www.w3.org/2000/svg" xmlns:xlink="http://www.w3.org/1999/xlink" x="0px" y="0px"
	 viewBox="0 0 48 48" style="enable-background:new 0 0 48 48;" xml:space="preserve">
<style type="text/css">
	.st0{fill:#6B6E82;}
</style>
<path class="st0" d="M24,2C11.87,2,2,11.87,2,24s9.87,22,22,22s22-9.87,22-22S36.13,2,24,2z M37.03,15.9c0,0.07-0.05,0.23-0.18,0.41
	c-0.61,0.81-1.31,1.55-2.13,2.16c-0.12,0.09-0.32,0.18-0.32,0.35c0,4.29-1.09,8.57-4.22,11.68c-3.98,3.95-9.95,5.03-15.25,3.56
	c-1.03-0.29-2.01-0.68-2.95-1.18c-0.32-0.17-0.62-0.34-0.92-0.54c-0.07-0.06-0.13-0.12-0.07-0.16c0.07-0.03,0.12-0.04,0.35,0
	c1.48,0.15,3.01-0.07,4.41-0.56c0.77-0.27,2.43-0.81,2.9-1.54c0.01-0.01,0.02-0.01,0.04-0.04c-0.19-0.04-0.39-0.04-0.58-0.08
	c-1.44-0.41-3.37-1.14-4.25-3.56c-0.06-0.14,0-0.21,0.15-0.19c1.19,0.1,1.61,0.03,2.02-0.07c-0.23-0.04-0.47-0.12-0.69-0.21
	c-1.81-0.69-3.14-2.46-3.38-4.38c-0.03-0.22-0.04-0.41-0.04-0.62c0.01-0.14,0.07-0.19,0.2-0.11c0.93,0.48,1.98,0.59,2.07,0.58
	c-0.23-0.18-0.45-0.38-0.66-0.58c-1.58-1.49-2.19-4.52-0.92-6.41c0.1-0.15,0.17-0.15,0.29-0.01c2.87,3.28,6.42,4.81,10.7,5.45
	c0.11,0.01,0.12,0,0.11-0.12c-0.11-0.76-0.12-1.49,0.06-2.24c0.19-0.77,0.56-1.5,1.06-2.12c0.48-0.59,1.09-1.09,1.77-1.44
	c0.68-0.35,1.43-0.57,2.19-0.62c0.78-0.05,1.58,0.07,2.32,0.37c0.56,0.23,1.05,0.54,1.51,0.92c0.1,0.08,0.18,0.18,0.27,0.28
	c0.06,0.06,0.12,0.08,0.21,0.06c1.09-0.27,2.12-0.66,3.12-1.2c0.04-0.02,0.08-0.04,0.14-0.01c0.04,0.04,0.03,0.09,0.01,0.14
	c-0.18,0.58-0.48,1.11-0.87,1.59c-0.25,0.31-0.86,1.07-1.28,1.14c0.89-0.15,1.83-0.37,2.65-0.75c0.1-0.05,0.15-0.07,0.15,0
	C37.03,15.87,37.03,15.88,37.03,15.9z"/>
</svg>
