<?xml version="1.0" encoding="utf-8"?>
<!-- Generator: Adobe Illustrator 26.3.1, SVG Export Plug-In . SVG Version: 6.00 Build 0)  -->
<svg version="1.1" id="Capa_1" xmlns="http://www.w3.org/2000/svg" xmlns:xlink="http://www.w3.org/1999/xlink" x="0px" y="0px"
	 viewBox="0 0 64 64" style="enable-background:new 0 0 64 64;" xml:space="preserve">
<style type="text/css">
	.st0{fill:#34363F;}
</style>
<path class="st0" d="M32,2C15.46,2,2,15.46,2,32c0,16.54,13.46,30,30,30s30-13.46,30-30C62,15.46,48.54,2,32,2z M49.77,20.95
	c0,0.09-0.07,0.31-0.25,0.56c-0.83,1.11-1.79,2.11-2.9,2.94c-0.16,0.12-0.43,0.25-0.43,0.48c0,5.85-1.49,11.69-5.76,15.93
	c-5.43,5.39-13.57,6.86-20.8,4.86c-1.4-0.39-2.74-0.93-4.02-1.61c-0.43-0.23-0.84-0.47-1.25-0.74c-0.1-0.08-0.18-0.16-0.09-0.22
	c0.09-0.04,0.16-0.05,0.48,0c2.02,0.2,4.1-0.1,6.02-0.77c1.05-0.37,3.31-1.11,3.96-2.1c0.02-0.02,0.03-0.02,0.05-0.05
	c-0.26-0.06-0.53-0.06-0.79-0.11c-1.96-0.56-4.59-1.55-5.8-4.86c-0.08-0.19,0-0.29,0.2-0.26c1.62,0.13,2.2,0.04,2.76-0.09
	c-0.32-0.05-0.64-0.16-0.94-0.29c-2.47-0.94-4.28-3.36-4.61-5.97c-0.04-0.3-0.06-0.56-0.05-0.84c0.02-0.19,0.1-0.26,0.27-0.15
	c1.27,0.66,2.7,0.81,2.82,0.79c-0.32-0.25-0.61-0.52-0.9-0.79c-2.15-2.03-2.98-6.17-1.26-8.74c0.14-0.21,0.23-0.21,0.4-0.01
	c3.92,4.47,8.76,6.56,14.59,7.43c0.15,0.02,0.17,0,0.15-0.17c-0.15-1.03-0.17-2.03,0.08-3.05c0.26-1.05,0.76-2.05,1.44-2.89
	c0.66-0.81,1.49-1.49,2.41-1.97c0.93-0.48,1.95-0.78,2.99-0.85c1.07-0.07,2.16,0.1,3.16,0.51c0.76,0.31,1.43,0.73,2.06,1.26
	c0.13,0.11,0.25,0.24,0.37,0.38c0.08,0.08,0.17,0.11,0.29,0.08c1.49-0.37,2.89-0.9,4.25-1.63c0.06-0.03,0.11-0.05,0.19-0.02
	c0.06,0.05,0.04,0.12,0.01,0.19c-0.24,0.79-0.66,1.52-1.18,2.17c-0.34,0.42-1.17,1.46-1.74,1.56c1.21-0.2,2.49-0.51,3.61-1.02
	c0.14-0.07,0.21-0.09,0.21,0C49.77,20.92,49.77,20.93,49.77,20.95z"/>
</svg>
